<?xml version="1.0" encoding="utf-8"?>
<!-- Generator: Adobe Illustrator 22.0.1, SVG Export Plug-In . SVG Version: 6.00 Build 0)  -->
<svg version="1.1" id="Layer_2" xmlns="http://www.w3.org/2000/svg" xmlns:xlink="http://www.w3.org/1999/xlink" x="0px" y="0px"
	 viewBox="0 0 1280 1024" style="enable-background:new 0 0 1280 1024;" xml:space="preserve">
<style type="text/css">
	.st0{fill:#666666;}
</style>
<path class="st0" d="M350.8,279c49.5,2.8,125.6-11.6,202.9-14.4c14,13.7,251.1,12.9,262,12.8c52.6-11.5,62.8,11.4,99.8-19.7
	c10.8-17.7,17.8-40.3,18.1-56.2c-16-74.8-51.6-70.5-159-66.5c-44.9,17-139.6-4-196.7,7.6c-41.7,7-177.1-14.6-256,6
	c-29.9,13.7-42.5,32.3-46.6,58.7C271.2,233.7,299.1,271.9,350.8,279z"/>
<path class="st0" d="M865.7,382.6c-49.5-1.9-125.3,13.9-202.6,18.2c-14.3-13.5-251.3-8.2-262.2-7.9c-52.4,12.5-63-10.3-99.4,21.6
	c-10.5,17.9-17.1,40.7-17,56.6c17.3,74.5,52.9,69.5,160.2,63.5c44.6-17.8,139.7,1.4,196.5-11.2c41.6-7.8,177.4,11.3,255.9-10.8
	c29.7-14.3,41.9-33.1,45.5-59.6S917.5,388.8,865.7,382.6z"/>
<path class="st0" d="M350.8,778.6c49.5,2.8,125.6-11.6,202.9-14.4c14,13.7,251.1,12.9,262,12.8c52.6-11.5,62.8,11.4,99.8-19.7
	c10.8-17.7,17.8-40.3,18.1-56.2c-16-74.8-51.6-70.5-159-66.5c-44.9,17-139.6-4-196.7,7.6c-41.7,7-177.1-14.6-256,6
	c-29.9,13.7-42.5,32.3-46.6,58.7C271.2,733.3,299.1,771.5,350.8,778.6z"/>
</svg>
