<svg id="Layer_1" data-name="Layer 1" xmlns="http://www.w3.org/2000/svg" viewBox="0 0 383.57 611.69"><defs><style>.cls-1{fill:red;}</style></defs><title>jp-text-red</title><path class="cls-1" d="M363.49,33.39c1.12-1.87,1.47-2.25,1-1.12a13.47,13.47,0,0,0-.84,3.75,6,6,0,0,0,.46,3.75,6.32,6.32,0,0,0,3.66,3,18,18,0,0,0,7,.66,37.47,37.47,0,0,0,7.22-1c1.88-.49,3.25-.9,4.13-1.21s1.43-.16,1.68.46a2,2,0,0,1-.37,1.6,5.43,5.43,0,0,1-2.63,1.59A28.17,28.17,0,0,1,378.11,46a32.27,32.27,0,0,1-8.62-.38,10,10,0,0,1-5.72-2.72,7.07,7.07,0,0,1-2-4.22A8.38,8.38,0,0,1,363.49,33.39Zm3.37-16.68c-.75-.63-.18-.72,1.69-.28a23.57,23.57,0,0,0,6.56.46,23.17,23.17,0,0,0,5.07-.65,2.94,2.94,0,0,1,2.43.09,2.62,2.62,0,0,1,1.22,1.5c.19.63-.09,1.07-.84,1.31a10.87,10.87,0,0,0-2.81.85c-1,.44-2.44,1.16-4.32,2.15a16,16,0,0,1-3.65,1.41c-.57.07-.35-.28.65-1s2.31-1.94,4.32-3.56a34.06,34.06,0,0,1-4.6-.28A25.43,25.43,0,0,1,369.3,18,9.11,9.11,0,0,1,366.86,16.71Z" transform="translate(-8.15 -10.96)"/><path class="cls-1" d="M371.55,62.79c.12-.38.53-.35,1.22.09a6,6,0,0,1,1.59,1.41,2.92,2.92,0,0,1,.38,1.21,4.39,4.39,0,0,1-.94,1.79q-1.12,1.3-9,16.87a23.93,23.93,0,0,1,5-4.12,7.08,7.08,0,0,1,3.28-.94,3.81,3.81,0,0,1,2.81.75,4.27,4.27,0,0,1,1.5,3.37c0,1.63,0,3.41-.09,5.35a14.87,14.87,0,0,0,.28,4.22,2.6,2.6,0,0,0,1.13,1.78,4.17,4.17,0,0,0,2.81.47,7.83,7.83,0,0,0,3.84-2.35A30.14,30.14,0,0,0,389.55,87q2.06-3.93,2.16-3.56a10.31,10.31,0,0,1-.66,2.81,24,24,0,0,1-2.62,5.44,13.68,13.68,0,0,1-3.57,4.13,12.43,12.43,0,0,1-3.47,1.31,6.44,6.44,0,0,1-3.46-.19,4.22,4.22,0,0,1-2.54-2.72,13.88,13.88,0,0,1-.46-5.15c0-2.25,0-4-.1-5.35s-.47-2.09-1.22-2.34-1.9-.1-3.47.84a14.73,14.73,0,0,0-4.4,4.41A44.83,44.83,0,0,0,361.52,93q-2,3.57-2.72,3.75c-.5,0-1-.44-1.41-1.31s-.09-2.12,1-3.75,3.24-5.81,6.37-12.19,5-10.37,5.63-12a9.06,9.06,0,0,0,.84-3.28A2,2,0,0,1,371.55,62.79Z" transform="translate(-8.15 -10.96)"/><path class="cls-1" d="M362.36,114.05a6.1,6.1,0,0,1,2.07,1.59,2.54,2.54,0,0,1,.18,3.1,32.28,32.28,0,0,0-1.78,3.84,22,22,0,0,0-1.22,5.35,19.38,19.38,0,0,0-.28,5.62,12.55,12.55,0,0,0,1.41,4.69c.62-1.38,1.25-2.75,1.87-4.13a6.47,6.47,0,0,1,1.32-2.25c.24-.12.21.5-.1,1.88a33,33,0,0,0-.65,3.75,19.34,19.34,0,0,0-.47,2.9c-.07.82-.1,1.54-.1,2.16s-.18,1-.56,1.13-.94-.25-1.69-1.13a14,14,0,0,1-2.15-3.84,18.63,18.63,0,0,1-1.22-6.1,25.14,25.14,0,0,1,.75-7.4q.93-3.84,1.5-5.72a6.6,6.6,0,0,0,.19-3.38,3.4,3.4,0,0,1-.19-1.87C361.36,113.86,361.74,113.8,362.36,114.05Zm9,18.38c.63-1.13,1-1.63,1.22-1.5s0,1-.47,2.62a5.48,5.48,0,0,0,.1,4.13,5.67,5.67,0,0,0,3.65,2.81,16.86,16.86,0,0,0,5.72.56,18.45,18.45,0,0,0,5.53-1.12c1.63-.63,2.56-.6,2.82.09a1.8,1.8,0,0,1-.57,2,8,8,0,0,1-3.93,1.31,33.55,33.55,0,0,1-6.19.19,16.24,16.24,0,0,1-5.44-1.41,6.36,6.36,0,0,1-3-2.9,5.8,5.8,0,0,1-.66-3.57A8.78,8.78,0,0,1,371.36,132.43Zm12.19-17.82a5.39,5.39,0,0,1,2.25-.47,3.67,3.67,0,0,1,1.69.85,2.16,2.16,0,0,1,.75,1.5c0,.5-.38.81-1.13.94a9.76,9.76,0,0,0-3.28,1.31,21.14,21.14,0,0,0-3.28,2.25c-1,.62-1.75,1.06-2.25,1.31s-.69.25-.56,0a10.05,10.05,0,0,1,1.87-2.34c1.13-1.19,2-2.16,2.63-2.91s.34-1-.85-.66l-3.84,1a5.09,5.09,0,0,1-3.19.09,1.92,1.92,0,0,1-1.12-1.22c-.25-.5.19-.66,1.31-.47a12.84,12.84,0,0,0,4.5-.28C380.93,115.18,382.43,114.86,383.55,114.61Z" transform="translate(-8.15 -10.96)"/><path class="cls-1" d="M369.49,157.72c-.25-1.12,0-1.59.84-1.4a7.11,7.11,0,0,1,2.53,1.21,1.25,1.25,0,0,1,.28,2q-.84,1-2,5.35,4.31-.57,6.28-1c1.31-.32,2.4-.6,3.28-.85a2.24,2.24,0,0,1,2.34.66c.69.69.59,1.16-.28,1.4s-2.66.57-5,.94-4.66.69-7,.94q-3.57,10.68-3.19,11.25a17.73,17.73,0,0,1,6.19-4.31,20.64,20.64,0,0,1,6.75-1.69,9.91,9.91,0,0,1,5.63,1.22,7.63,7.63,0,0,1,3.37,3.65,8.13,8.13,0,0,1,0,5.44,10.17,10.17,0,0,1-4.12,5.44,18.76,18.76,0,0,1-8.63,2.53c-3.63.31-5.56.35-5.81.09s1-.71,3.65-1a22.75,22.75,0,0,0,7.22-2,8.68,8.68,0,0,0,4.22-4.12,7.53,7.53,0,0,0,.85-4.5,5.19,5.19,0,0,0-2-3.28,7.79,7.79,0,0,0-4.22-1.41,11.9,11.9,0,0,0-6.47,1.41,14.25,14.25,0,0,0-5.53,4,7.64,7.64,0,0,1-2.53,2.53c-.57.19-1-.22-1.41-1.22a4.43,4.43,0,0,1,0-3.09c.38-.94,1.62-4.53,3.75-10.78a30.11,30.11,0,0,1-3.84.09,12.45,12.45,0,0,1-2.53-.47,6.41,6.41,0,0,1-2.07-1.31c-.5-.5-.18-.62.94-.38a30.27,30.27,0,0,0,3.47.19c1.19,0,2.65-.06,4.41-.19a25,25,0,0,0,.75-3.93A10,10,0,0,0,369.49,157.72Z" transform="translate(-8.15 -10.96)"/><path class="cls-1" d="M361.05,209.27c-.25-1.37,0-1.94.84-1.69a4.24,4.24,0,0,1,2.16,1.69,2,2,0,0,1,.19,2.44q-.75,1.13-2.25,7.12a50.46,50.46,0,0,0-2,9.1,13.76,13.76,0,0,0,.66,5.9c1-2.25,1.81-4.06,2.43-5.44s.94-1.87.94-1.5-.25,1.63-.75,4.13a31.44,31.44,0,0,0-.75,5.44,8.46,8.46,0,0,1-.28,2.53c-.19.56-.78.34-1.78-.66a10.6,10.6,0,0,1-2.53-5.06c-.57-2.25-.28-5.69.84-10.31s1.69-7.91,2.06-9.47A9.75,9.75,0,0,0,361.05,209.27Zm17.44-3.19q.18-.56,1.59-.09a5.4,5.4,0,0,1,2.16,1.22,1.07,1.07,0,0,1,.09,1.4,5.42,5.42,0,0,0-.47,2.53,44.58,44.58,0,0,0-.18,4.5,29.34,29.34,0,0,0,4.5-1.5,3.24,3.24,0,0,1,3,0c.87.51.65,1-.66,1.6a46.17,46.17,0,0,1-6.84,2q.18,8.25.18,14.25a18.56,18.56,0,0,1,4.6,2.34,4.55,4.55,0,0,1,2.15,2.72,3,3,0,0,1-.65,2.06c-.44.5-1.16.07-2.16-1.31a13.06,13.06,0,0,0-4.12-3.56,8.26,8.26,0,0,1-2.44,4.87,8.21,8.21,0,0,1-9.85.47,5,5,0,0,1-2-3.66,4.5,4.5,0,0,1,1.5-3.84,6.82,6.82,0,0,1,4.87-1.59,15,15,0,0,1,5.81.75q0-4.87-.18-12.94a21.64,21.64,0,0,1-5.72.28,7.87,7.87,0,0,1-2.72-.84c-.75-.5-.56-.75.56-.75h3a29,29,0,0,0,4.88-.75,32.49,32.49,0,0,0-.57-7.69A5.21,5.21,0,0,1,378.49,206.08Zm.94,27.19a14.41,14.41,0,0,0-4.13-1,6.73,6.73,0,0,0-4.12.65,2.52,2.52,0,0,0-1.5,2.63A3.16,3.16,0,0,0,371,238a5.52,5.52,0,0,0,2.81.84,6.16,6.16,0,0,0,3.38-.84Q378.86,236.84,379.43,233.27Z" transform="translate(-8.15 -10.96)"/><path class="cls-1" d="M314.89,21.21a2.77,2.77,0,0,1,2.25-.19,5.84,5.84,0,0,1,2.25,1.22c.62.56.62,1.25,0,2.06a8.21,8.21,0,0,0-1.31,3.85c-.26,1.75-.6,3.94-1,6.56a20.86,20.86,0,0,1-2.15,6.66A8.22,8.22,0,0,1,311.42,45c-1.31.63-2,.44-2.06-.56A8.08,8.08,0,0,0,308,40.9c-.88-1.38-.75-1.75.38-1.13a5.93,5.93,0,0,0,2.62.94c.62,0,1.19-.53,1.69-1.59a26.54,26.54,0,0,0,1.5-4.5A54.85,54.85,0,0,0,315.36,28c.31-2.5.28-3.94-.1-4.31s-1.75-.19-4.12.56a56.34,56.34,0,0,1-4.41,10.13,32.92,32.92,0,0,1-4.22,5.53,23,23,0,0,1-5,3.93c-1.81,1.07-1.78.69.1-1.12a40.42,40.42,0,0,0,5.53-6.84,46.37,46.37,0,0,0,5-11.07q-3.57.75-5.35,1.32a3.85,3.85,0,0,1-3.56-.75c-1.19-.88-1-1.28.66-1.22a42.17,42.17,0,0,0,8.62-1.22,32.09,32.09,0,0,0,1.13-5.35,10.15,10.15,0,0,0-.28-4.68q-.66-1.78,2.34-.28c1.75.75,2.37,1.43,1.88,2.06s-1.19,3.19-2.07,7.69A12.89,12.89,0,0,0,314.89,21.21Zm20.25,17.34q-2.44.11-10.69.85c-.63,1.5-1.1,1.94-1.41,1.31a11.17,11.17,0,0,1-.75-3.28c-.18-1.56-.44-3.44-.75-5.63a15.67,15.67,0,0,0-1.31-4.87c-.56-1.06-.44-1.53.38-1.41a16.24,16.24,0,0,1,2.15.47,7,7,0,0,0,2.63.1c1.12-.13,2.46-.35,4-.66a12.82,12.82,0,0,0,3.37-1,3.38,3.38,0,0,1,2.63-.1,8.73,8.73,0,0,1,2.81,1.41c.81.63.85,1.28.1,2S336.45,31.15,335,36Q337.58,38.46,335.14,38.55Zm-10.88-.65q4.32-.75,8.44-1.31a43.44,43.44,0,0,0,.75-5.63,8.9,8.9,0,0,0-.19-3.56c-.25-.5-1-.72-2.15-.66s-3.66.35-7.41.85Q324.08,34.9,324.26,37.9Z" transform="translate(-8.15 -10.96)"/><path class="cls-1" d="M319,90.46a8.36,8.36,0,0,0-.93-3.37c-.51-.87-.26-1.19.75-.94a19.56,19.56,0,0,1,2.43.75,1,1,0,0,1,.66,1.41,16.09,16.09,0,0,0-.38,3.18,8.48,8.48,0,0,1-.65,3.29c-.38.75-.75.78-1.13.09a6.73,6.73,0,0,1-.56-3.09,51.81,51.81,0,0,0-5.72,1c-2.56.56-4.66,1.06-6.28,1.5a9.52,9.52,0,0,0-3.47,1.5q-1,.84-1.5-.66a2.52,2.52,0,0,1,.28-2.44,4.43,4.43,0,0,0,.94-2,4.81,4.81,0,0,0-.19-2.25q-.37-1.21.57-.84a7.21,7.21,0,0,1,1.68.94,1.36,1.36,0,0,1,.47,1.59,6.44,6.44,0,0,0-.28,1.6.5.5,0,0,0,.56.56q.75,0,5.07-.75c0-3.25-.29-5.28-.85-6.1s-.31-1.12.75-.93a6.87,6.87,0,0,1,2.35.75.94.94,0,0,1,.37,1.31,18.92,18.92,0,0,0-.56,4.78C315,91.15,316.89,90.84,319,90.46Zm-2.34-25.59a33.49,33.49,0,0,0,5-1.41,3.47,3.47,0,0,1,2.72,0,9.4,9.4,0,0,1,2.43,1.41c.69.56.6,1.12-.28,1.69a10.14,10.14,0,0,0-2.81,3.37,27.72,27.72,0,0,1-2.81,4c-.88,1-1.44.88-1.69-.37-4,.63-7.12,1.06-9.37,1.31v3.19q3.74-.57,5.15-.94t2.91-.66a2.67,2.67,0,0,1,2.34.47c.56.5.19.94-1.12,1.32a23.44,23.44,0,0,1-4.5.75c-1.69.12-3.28.18-4.78.18V82a85.43,85.43,0,0,0,9.09-.85c2.93-.43,5.09-.75,6.47-.94s2.68-.4,3.94-.65a5.45,5.45,0,0,1,3.75.65,12.21,12.21,0,0,1,2.43,1.6c.38.37.22.91-.47,1.59s-1.12,2.32-1.31,4.88a30.48,30.48,0,0,1-1.31,7,9.37,9.37,0,0,1-3,4.69c-1.31,1-2.1.87-2.34-.38A6.62,6.62,0,0,0,324.45,96c-1.5-1.18-1.85-1.68-1-1.5a23.85,23.85,0,0,0,3,.47,3.33,3.33,0,0,0,2.44-.37,7.48,7.48,0,0,0,1.4-3,23,23,0,0,0,.85-6c.06-2.37-.57-3.59-1.88-3.66a50.67,50.67,0,0,0-5.72.19q-3.75.28-8.62.84T309,84.37c-.69.56-1.19.41-1.5-.47a3.45,3.45,0,0,1,.1-2.62,12.9,12.9,0,0,0,.46-4.79q-.09-3.46-.28-5.9a9.18,9.18,0,0,0-.93-3.75c-.51-.87-.51-1.31,0-1.31a10.36,10.36,0,0,1,2.25.37,31.58,31.58,0,0,0,5-5.25,5.67,5.67,0,0,0,1.32-3.19c-.07-.75.4-.93,1.4-.56a7.86,7.86,0,0,1,2.53,1.5q1,.95-.18,1.41a15.12,15.12,0,0,0-3.19,1.87q-2,1.41-5.16,4.22A43.45,43.45,0,0,0,316.67,64.87Zm-6.84,4.78a19.46,19.46,0,0,0,3.75-.75,9.26,9.26,0,0,1,3.18-.47c.88.07,1.34.32,1.41.75s-.75.82-2.44,1.13a46.77,46.77,0,0,1-5.9.65v2.63a46.16,46.16,0,0,0,4.59-.75,25.92,25.92,0,0,1,5.34-.56,19.17,19.17,0,0,0,1.6-4.41c.31-1.44.18-2.19-.38-2.25a23.88,23.88,0,0,0-4.78.75c-2.62.56-4.75,1-6.37,1.22Z" transform="translate(-8.15 -10.96)"/><path class="cls-1" d="M325,119.45c2.38-.38,4-.69,5-.94a2.29,2.29,0,0,1,2.35.56,10.18,10.18,0,0,1,1.68,2.34c.5.94.38,1.54-.37,1.79s-2.75,1.62-6,4.12l-8.81,6.75a21.91,21.91,0,0,1,2.81,3.75,5.29,5.29,0,0,1,.75,3.19,3,3,0,0,1-1.13,1.78c-.5.31-1.12-.41-1.87-2.16a58.79,58.79,0,0,0-2.91-5.43,39.93,39.93,0,0,0-3.47-4.88c-1.25-1.62-1.78-2.5-1.59-2.62s1,.37,2.34,1.5a31.58,31.58,0,0,1,4.5,4.12q5.44-4.87,8.72-8.25a25.1,25.1,0,0,0,3.47-3.94c0-.37-.44-.5-1.31-.37l-4.31.56q-3,.38-9.94.94c-4.63.37-7.63.69-9,.94a4.56,4.56,0,0,1-3.28-.66,3.23,3.23,0,0,1-1.22-1.59c-.25-.5.34-.66,1.78-.47a41.91,41.91,0,0,0,5.16.28q2.81,0,8-.47T325,119.45Z" transform="translate(-8.15 -10.96)"/><path class="cls-1" d="M324.64,157.51c.12-1,.68-1.13,1.69-.38a5.49,5.49,0,0,1,1.87,2.07,1.23,1.23,0,0,1-.56,1.4,17.53,17.53,0,0,0-2.63,2.53l-6.37,6.38c1.5,1,2.12,1.94,1.87,2.81a11,11,0,0,0-.37,3,48.93,48.93,0,0,0-.19,5.34c0,2.57.06,4.91.19,7a40.61,40.61,0,0,1-.19,4.5,3.6,3.6,0,0,1-.75,2.06c-.5.25-1-.28-1.59-1.6a5.41,5.41,0,0,1-.28-3.84,37.89,37.89,0,0,0,.37-6.09v-6.85A25,25,0,0,0,317,171a37.59,37.59,0,0,1-3.56,2.81q-1.87,1.32-4.88,3a41.15,41.15,0,0,1-5.25,2.25c-1.5.5-2.31.69-2.43.56s.84-.84,3.28-2.15a68.81,68.81,0,0,0,8-5.16,49.09,49.09,0,0,0,6.84-6.28,44.78,44.78,0,0,0,4-5.16A14.12,14.12,0,0,0,324.64,157.51Z" transform="translate(-8.15 -10.96)"/><path class="cls-1" d="M319.39,208.7c-.38-.88-.13-1.22.75-1a7.38,7.38,0,0,1,2.25.85,1.16,1.16,0,0,1,.47,1.4,12.34,12.34,0,0,0-.47,2.35,40.5,40.5,0,0,0-.19,4.69q4.5-.37,6.66-.66a11.68,11.68,0,0,1,3.28-.09,2.05,2.05,0,0,1,1.59,1c.31.56.34,1,.1,1.22a6.65,6.65,0,0,1-2.25,0,21.74,21.74,0,0,0-4.13,0q-2.62,0-5.25.18,0,9.38-1.59,13.32a13.65,13.65,0,0,1-4,5.81,23.43,23.43,0,0,1-4.69,3.37c-1.63.88-2.57,1.25-2.81,1.13s.59-.94,2.53-2.44a29.66,29.66,0,0,0,5.34-5.44,19.35,19.35,0,0,0,2.53-7.4,67.93,67.93,0,0,0,.47-8.16q-4.5.38-9.94,1.13v6.37a16.88,16.88,0,0,1-.18,2.63,2.47,2.47,0,0,1-.85,1.21c-.31.19-.72-.15-1.22-1a4.59,4.59,0,0,1-.47-3.56,24.4,24.4,0,0,0,.47-5.25c-1.25.25-2.41.47-3.47.66a12.94,12.94,0,0,0-2.9.84,3.53,3.53,0,0,1-2.44-.09,3.57,3.57,0,0,1-1.5-1.41c-.37-.62,0-.9,1-.84a24.59,24.59,0,0,0,3.66-.1c1.37-.12,3.25-.37,5.62-.75a55,55,0,0,0-.18-6.18,18.3,18.3,0,0,0-.57-2.07c-.37-.75-.31-1.18.19-1.31a3.67,3.67,0,0,1,2.25.56c.87.5,1.25,1,1.13,1.41s-.26,1-.38,1.59a44,44,0,0,0-.19,5.63c3.25-.38,6.57-.75,9.94-1.13q0-4.68-.09-6A10.27,10.27,0,0,0,319.39,208.7Zm6.37-1.88c.13-.12.81.06,2.07.56a17,17,0,0,1,3,1.5,4.33,4.33,0,0,1,1.5,1.5,2.57,2.57,0,0,1-.19,2.07c-.38.75-.82.81-1.31.18l-1.69-2.06a28.64,28.64,0,0,0-2.35-2.44C326,207.38,325.64,207,325.76,206.82Zm4.5-2.81c0-.25.78-.06,2.35.56a13.16,13.16,0,0,1,3.65,2.06,2,2,0,0,1,.57,2.44q-.57,1.5-1.32.75c-.5-.62-1.06-1.31-1.68-2.06a19.89,19.89,0,0,0-2.25-2.25C330.57,204.63,330.14,204.13,330.26,204Z" transform="translate(-8.15 -10.96)"/><path class="cls-1" d="M311.14,253.68c.25-.37.81-.37,1.69,0a6.83,6.83,0,0,1,2.06,1.31,1.42,1.42,0,0,1,0,1.69,7.28,7.28,0,0,0-.75,3,11.54,11.54,0,0,0,.19,4.6,9.49,9.49,0,0,0,2.25,4.4q5.81-2.62,7.12-3.28c.87-.44,1.37-.84,1.5-1.22a1.93,1.93,0,0,1,.66-1.12c.31-.25.84-.06,1.59.56a2.63,2.63,0,0,1,1.13,2c0,.69-.88,1.34-2.63,2a48.12,48.12,0,0,0-5,1.59q-2.16.84-4.78,2.16a31,31,0,0,0-4.87,3,8.23,8.23,0,0,0-3,3.75,5.21,5.21,0,0,0-.1,4.22,5.52,5.52,0,0,0,3.85,3.09,24.41,24.41,0,0,0,7.4.47,28.19,28.19,0,0,0,6.66-1c1.37-.5,2.31-.6,2.81-.28a2,2,0,0,1,.94,1.21c.12.51-.41,1.07-1.6,1.69s-4,1-8.34,1.13-7.75-.38-10.12-1.5-3.75-2.69-4.13-4.69a8.9,8.9,0,0,1,.75-6.19q1.5-3,7.88-6.37a14.51,14.51,0,0,1-2.54-6.1,21.24,21.24,0,0,1-.28-5,8,8,0,0,0-.28-3.37C310.92,254.5,310.89,253.93,311.14,253.68Z" transform="translate(-8.15 -10.96)"/><path class="cls-1" d="M316.76,302.46a9.5,9.5,0,0,0-1.22-4.59q-1-1.59,2.35-.57t2.62,2.16q-.75,1.13-.93,8.25,7.31-.75,8.9-1.5a3.69,3.69,0,0,1,3.47.28,34.6,34.6,0,0,1,3.19,2c.87.63.9,1.31.09,2.06s-1.84,2.6-3.09,5.53a60.76,60.76,0,0,1-3.38,6.94q-1.5,2.53-1.87-.28c-1.88,0-4.31.13-7.31.38,0,3.12,0,6-.1,8.53a41.56,41.56,0,0,1-.56,6.37c-.31,1.69-.72,2.53-1.22,2.53s-.59-1.5-.66-4.5-.09-7.18-.09-12.56q-5.06.57-8.06.94c-.63,1.75-1.13,2.09-1.5,1a39.54,39.54,0,0,1-1.13-3.94q-.56-2.34-1.5-5.62A16.62,16.62,0,0,0,302.7,311c-.75-1.06-.84-1.65-.28-1.78a6.45,6.45,0,0,1,2.16,0,21.09,21.09,0,0,0,4.12,0c1.88-.12,4.62-.5,8.25-1.12C317,306.34,316.89,304.46,316.76,302.46Zm-2.9,14.91a3.93,3.93,0,0,1-3.1-.85c-1-.75-1.06-1.12-.18-1.12a54.8,54.8,0,0,0,6.37-.75v-4.88q-7.12.75-9.94,1.32.75,6,1.69,11.43c3.5-.49,6.25-.87,8.25-1.12v-4.5C316,317,314.92,317.18,313.86,317.37Zm9-3.66a3.46,3.46,0,0,1,2.9.47c.75.56.63,1-.37,1.41a26.45,26.45,0,0,1-5.81.93v4.88a29.56,29.56,0,0,0,4.87-.66,4.82,4.82,0,0,1,2.81.47,37.29,37.29,0,0,0,2.35-8.16c.43-2.68.34-4.15-.28-4.4a6,6,0,0,0-2.72-.19l-7,.75v5.06C320.57,314.15,321.67,314,322.86,313.71Z" transform="translate(-8.15 -10.96)"/><path class="cls-1" d="M306.45,349.42a5.81,5.81,0,0,1,2.81.84c1,.57,1.25,1.16.75,1.79s-1.09,2.84-1.4,6.65a93.4,93.4,0,0,0-.28,11.16,46.89,46.89,0,0,0,.46,7.87,5.83,5.83,0,0,0,2.91,3.94q2.25,1.32,6.19.19a25.1,25.1,0,0,0,8.44-4.69c2.87-2.37,4.4-3.47,4.59-3.28s-.35,1.1-1.59,2.72a30.44,30.44,0,0,1-4.5,4.31,22.22,22.22,0,0,1-5.44,3.19,14.76,14.76,0,0,1-6,.65,7.74,7.74,0,0,1-5.25-2.53q-2.25-2.43-2.35-8.25t.1-11.43q.18-5.62.28-8a10,10,0,0,0-.47-3.85C305.33,349.73,305.57,349.3,306.45,349.42Z" transform="translate(-8.15 -10.96)"/><path class="cls-1" d="M318.08,397.06a5,5,0,0,1,2.15.75,1.37,1.37,0,0,1,.66,1.5,10.2,10.2,0,0,0-.56,2.62,33.06,33.06,0,0,0-.19,3.75,19.84,19.84,0,0,0,4.12-1.12l2.82-1.13a2,2,0,0,1,1.68,0,1.72,1.72,0,0,1,.94.94c.12.25-.31.59-1.31,1a30.42,30.42,0,0,1-3.38,1.22,49,49,0,0,1-4.87,1.12v6.38a25.79,25.79,0,0,0,4.59-1.41,14.51,14.51,0,0,1,2.16-.84,1.94,1.94,0,0,1,1.5.37c.62.38.5.82-.38,1.32a27.63,27.63,0,0,1-3.37,1.4,36.36,36.36,0,0,1-4.5,1.22v7.88a44.53,44.53,0,0,1,5.25,2.81,32.53,32.53,0,0,1,3,2.25A3.51,3.51,0,0,1,329.7,431a2.63,2.63,0,0,1-.37,1.88c-.51.62-1.22.37-2.16-.75a20.34,20.34,0,0,0-3.09-3,49.24,49.24,0,0,0-4.13-2.81,8.19,8.19,0,0,1-2.91,5.15,7.6,7.6,0,0,1-4.59,1.6,8.93,8.93,0,0,1-4.22-.85,5.06,5.06,0,0,1-2.34-2.9,4.22,4.22,0,0,1,.28-4.13c.81-1.37,2.34-2.25,4.59-2.62a14.17,14.17,0,0,1,7.13.75v-6.75a25.34,25.34,0,0,1-5.72.09,6.11,6.11,0,0,1-2.91-1c-.75-.62-.47-.87.85-.75s2.4.19,3.28.19,2.37-.31,4.5-.57v-6.56a19.54,19.54,0,0,1-3.19.1c-.75-.07-1.63-.16-2.62-.29a5.83,5.83,0,0,1-2.72-1c-.82-.56-.54-.78.84-.65a28.32,28.32,0,0,0,3.94.09c1.37-.06,2.62-.15,3.75-.28v-3.56a14.63,14.63,0,0,0-.19-2.63l-.75-1.87C316.7,397.18,317.07,396.93,318.08,397.06Zm-3.19,27.37a23.23,23.23,0,0,0-2.72-.19,5.17,5.17,0,0,0-2.53.75,2.83,2.83,0,0,0-1.88,1.79,2.8,2.8,0,0,0,.57,2.53,3.73,3.73,0,0,0,3,1.59,6.25,6.25,0,0,0,4.12-.84q1.69-1.32,2.25-4.69A9.47,9.47,0,0,0,314.89,424.43Z" transform="translate(-8.15 -10.96)"/><path class="cls-1" d="M318.08,444.84a6.84,6.84,0,0,1,2.34.37,2.9,2.9,0,0,1,1.41.94c.24.25.24.69,0,1.31s-.38,2.57-.38,5.82q7.13-.94,9.66-1.22a7.84,7.84,0,0,1,3.84.28,2.61,2.61,0,0,1,1.59,1.31c.31.63-.09.94-1.21.94a44.6,44.6,0,0,0-5.35-.1q-3.47.11-8.53.66c0,1.88.06,4.06.19,6.56a21.57,21.57,0,0,1,.47,5.63,17.14,17.14,0,0,1-1.41,6.37,13.94,13.94,0,0,1-3.75,5.07,17.53,17.53,0,0,1-4.87,3,8,8,0,0,1-3.29.75c-.44-.13.1-.51,1.6-1.13a24.23,24.23,0,0,0,4.87-3.84,16.08,16.08,0,0,0,4.13-7,4.93,4.93,0,0,1-3.28,2,3.44,3.44,0,0,1-3.1-.84,5.78,5.78,0,0,1-1.78-3.28,9.84,9.84,0,0,1-.09-4,6.9,6.9,0,0,1,1.5-3.19,5.1,5.1,0,0,1,2.81-1.69,5.57,5.57,0,0,1,3.94.94c0-1.25-.07-2.94-.19-5.06q-5.44.75-8.44,1.31a48.59,48.59,0,0,0-4.87,1.13,4.63,4.63,0,0,1-3.19,0,5.54,5.54,0,0,1-1.87-1.5c-.63-.75,0-1.07,1.78-.94a32.44,32.44,0,0,0,6.65-.38l9.94-1.5a27.12,27.12,0,0,0-.56-5.43,6.75,6.75,0,0,0-1.13-2.07C317,445.21,317.2,444.84,318.08,444.84Zm-1.88,16.5a2.58,2.58,0,0,0-1.87,1,4.43,4.43,0,0,0-1.13,2.53,8.92,8.92,0,0,0,0,2.63,3.86,3.86,0,0,0,1.13,2.25,1.67,1.67,0,0,0,2,.56,4.53,4.53,0,0,0,2.16-1.5,5.52,5.52,0,0,0,.84-2.81,11,11,0,0,0-.09-2.63,2.69,2.69,0,0,0-1.22-1.59A3.64,3.64,0,0,0,316.2,461.34Z" transform="translate(-8.15 -10.96)"/><path class="cls-1" d="M258,15.28c-.5-1-.32-1.5.56-1.5a5.3,5.3,0,0,1,2.63.75A1.26,1.26,0,0,1,262,16.4a11.52,11.52,0,0,0-.38,4.69c6.38-1,9.87-1.72,10.5-2.16A1.45,1.45,0,0,1,274,19a17,17,0,0,1,1.87,1.78c.62.69.62,1.28,0,1.78s-1.66,2.13-3.09,4.87a74.45,74.45,0,0,1-5.53,8.82,47.53,47.53,0,0,1-6.38,7.4,28,28,0,0,1-5.44,4,8.54,8.54,0,0,1-2.81,1q-.37-.09,3-2.71a46.73,46.73,0,0,0,6.75-7.13q3.38-4.3,5.44-7.5a57,57,0,0,0,3.28-6.47c.94-2.18,1.28-3.34,1-3.47s-2.78.19-7.22.94L256,23.9q-2.25.38-3.57.66a6.13,6.13,0,0,1-2.81-.1c.62,5.25.91,8.19.84,8.82a10.07,10.07,0,0,1-.46,2.06c-.26.63-.79.53-1.6-.28a3.23,3.23,0,0,1-.84-3.1,30.46,30.46,0,0,0,.09-4.12,22.52,22.52,0,0,0-.47-3.94c-.37-1.25-.47-2-.28-2.34s.78-.16,1.78.47a4.18,4.18,0,0,0,2.44.65q1.13-.09,8.06-1.22a27.14,27.14,0,0,0-.18-3.65A7.49,7.49,0,0,0,258,15.28Z" transform="translate(-8.15 -10.96)"/><path class="cls-1" d="M264.41,74.53a7.42,7.42,0,0,1,2.53-.57,2.61,2.61,0,0,1,2,1.13c.63.75.38,1.12-.75,1.12s-3.62.26-7.5.75c1.25.63,1.69,1.5,1.32,2.63s-.57,4-.57,8.62l6.57-.75a28.47,28.47,0,0,1,3-.18,3.12,3.12,0,0,1,2,.65,2.66,2.66,0,0,1,1,1.6c0,.5-.51.68-1.5.56a40.87,40.87,0,0,0-4.5-.19,55.78,55.78,0,0,0-9.1.56,44.56,44.56,0,0,0-7.59,1.32,3.12,3.12,0,0,1-3-1.13c-1-1-.88-1.43.37-1.31s4.63-.31,10.5-.94c.13-6.25,0-9.94-.37-11.06-1.88.25-3.25.47-4.13.65a4.82,4.82,0,0,1-2.06.1,3.88,3.88,0,0,1-1.78-1.41q-1-1.22,1.59-.84a31.62,31.62,0,0,0,6.47-.38Q262.91,74.91,264.41,74.53Z" transform="translate(-8.15 -10.96)"/><path class="cls-1" d="M265,114.5a8.6,8.6,0,0,1,2.34-.38,3.49,3.49,0,0,1,2.16.94,6.49,6.49,0,0,1,1.21,1.5c.19.37,0,.81-.46,1.31A8.3,8.3,0,0,0,268,120.5l-4.32,6.75a55.74,55.74,0,0,1-8.15,9,40.09,40.09,0,0,1-9.28,6.56q-4.32,1.88-4.5,1.59c-.13-.18,1.06-1,3.56-2.53a57.94,57.94,0,0,0,8.34-6.84A55.48,55.48,0,0,0,261,126.5a75.31,75.31,0,0,0,4.12-6.94c.88-1.75,1.25-2.69,1.13-2.81s-.6-.31-1.41-.19-2.59.44-5.34.94-5.66.75-8.35,1.12-4.65.69-5.9.94a5,5,0,0,1-3.1-.19,3.87,3.87,0,0,1-1.78-1.5c-.37-.75.13-1.06,1.5-.94a40,40,0,0,0,5.63,0q3.38-.18,9.75-1.12T265,114.5Zm4.87-4.69c0-.25.66-.06,2,.56a11.2,11.2,0,0,1,3.09,2.06,2.31,2.31,0,0,1,1,2,2.52,2.52,0,0,1-.65,1.6c-.5.25-.94.06-1.31-.57s-.88-1.37-1.5-2.25a23.44,23.44,0,0,0-2-2.34C269.94,110.28,269.72,109.94,269.85,109.81Zm4.5-2.81c.12-.13.78.09,2,.65a24.21,24.21,0,0,1,2.91,1.6,4.2,4.2,0,0,1,1.31,1.68,2.18,2.18,0,0,1-.38,2.07c-.5.75-1,.69-1.59-.19s-1.1-1.62-1.59-2.25a19.57,19.57,0,0,0-1.79-2.25C274.51,107.56,274.22,107.12,274.35,107Z" transform="translate(-8.15 -10.96)"/><path class="cls-1" d="M263.85,165c2.25-.5,3.72-.81,4.41-.94a2.82,2.82,0,0,1,2,.37,2.69,2.69,0,0,1,1.21,1.32c.19.5-.28.75-1.4.75a32.44,32.44,0,0,0-4.5.37q-2.62.38-5.81.75a5.41,5.41,0,0,1,1.78,1.5,2.43,2.43,0,0,1,.09,1.5,14.15,14.15,0,0,0-.56,3.66c-.13,1.81-.19,4.66-.19,8.53q6.56-.57,10.13-.94t5.06.38a2.52,2.52,0,0,1,1.59,1.59c.19.69-.41.91-1.78.66a33.15,33.15,0,0,0-6.09-.28q-3.86.09-9.1.65c-3.5.25-6.34.54-8.53.85a29.64,29.64,0,0,0-5,1,3,3,0,0,1-3.09-1.41q-1.41-1.78.66-1.59a35.74,35.74,0,0,0,4.59.09q2.53-.09,9.28-.84v-7.6q0-5.52-.94-7.4l-3.18.47a33.44,33.44,0,0,0-3.38.65,3.25,3.25,0,0,1-3.19-1.31c-1-1.13-.62-1.56,1.13-1.31a42.52,42.52,0,0,0,7-.28A70.33,70.33,0,0,0,263.85,165Z" transform="translate(-8.15 -10.96)"/><path class="cls-1" d="M245.48,210.17c.12-.25,1.15.07,3.09.94a55.93,55.93,0,0,1,5.16,2.62,5.08,5.08,0,0,1,2.43,2.82,3.14,3.14,0,0,1-.37,2.62c-.5.63-1.16.38-2-.75a24.62,24.62,0,0,0-3.28-3.56,37.87,37.87,0,0,0-3.66-3.28C245.82,210.77,245.35,210.3,245.48,210.17Zm28.12,7.13c2-2.25,3.12-3.31,3.38-3.19s-.26,1.12-1.5,3a46.46,46.46,0,0,1-5.63,6.56,91.33,91.33,0,0,1-7.5,6.75,81.82,81.82,0,0,1-7,4.88c-2.06,1.25-3.53,2.18-4.41,2.81a2.13,2.13,0,0,1-2.53.19,5.62,5.62,0,0,1-1.59-1.69c-.5-.75-.25-1.16.75-1.22a21,21,0,0,0,3.75-.66,30.55,30.55,0,0,0,6.94-4.12,100.28,100.28,0,0,0,8.43-6.75Q270.41,220.49,273.6,217.3Z" transform="translate(-8.15 -10.96)"/><path class="cls-1" d="M248.1,267.87a18.32,18.32,0,0,1,4.69,2.25,3.86,3.86,0,0,1,1.69,2.25,2.75,2.75,0,0,1-.47,2.06c-.44.63-1,.56-1.6-.19s-1.19-1.41-1.68-2-1.13-1.22-1.88-2-1.78-1.46-2.72-2.15-1.34-1.1-1.22-1.22S246,267,248.1,267.87Zm21,4.12c1.75-1.62,3.56-3.47,5.44-5.53s2.87-3,3-2.72-.63,1.63-2.25,4.13a41.91,41.91,0,0,1-7.31,8.06,66,66,0,0,1-9.75,7.22,46.42,46.42,0,0,0-5.63,3.65,7.38,7.38,0,0,1-1.59,1c-.44.19-1.1-.15-2-1s-1.5-1.53-1.5-2,.43-.65,1.31-.65,2-.34,3.28-.66a23,23,0,0,0,5.35-2.34,72.68,72.68,0,0,0,6.09-4.41Q266.48,274.43,269.1,272Zm-21-14.25c-.13-.25,1,0,3.28.84a19.82,19.82,0,0,1,5,2.35A3.25,3.25,0,0,1,258,263a2.93,2.93,0,0,1-.38,2.06c-.37.5-1,.32-1.78-.56a32.19,32.19,0,0,0-2.53-2.44,41.21,41.21,0,0,0-3.37-2.62C248.72,258.56,248.1,258,248.1,257.74Zm16.31-1.5c.13-.12.94.19,2.44.94a9.38,9.38,0,0,1,3,2.06,2,2,0,0,1,.66,1.69,2.4,2.4,0,0,1-.66,1.5c-.5.37-1.06,0-1.69-1a21.23,21.23,0,0,0-2.43-3.28C264.6,256.87,264.16,256.24,264.41,256.24Zm3.38-3c.12-.12,1,.16,2.53.84a15.42,15.42,0,0,1,3.47,2,2.13,2.13,0,0,1,.37,2.44c-.37,1-.81,1.19-1.31.56s-1.06-1.31-1.69-2.06a18.36,18.36,0,0,0-2.25-2.25C268,253.87,267.66,253.37,267.79,253.24Z" transform="translate(-8.15 -10.96)"/><path class="cls-1" d="M266.66,326.34c3.38-.25,5.56-.44,6.57-.56a4.9,4.9,0,0,1,2.43.18,4.38,4.38,0,0,1,1.5.94,1.08,1.08,0,0,1,.38,1.13c-.13.37-.63.5-1.5.37a20.8,20.8,0,0,0-2.81-.19,78.43,78.43,0,0,0-8.35.1c-4.44.18-8.28.47-11.53.84s-5.72.5-7,.75a3.59,3.59,0,0,1-3.09-.56c-.88-.75-1.32-1.31-1.32-1.69s.5-.5,1.5-.37a34.43,34.43,0,0,0,3.94.18q2.43,0,8.25-.37T266.66,326.34Zm-4.31-15.19a38.31,38.31,0,0,0,4.5-.47,4.1,4.1,0,0,1,2.63.28,2.69,2.69,0,0,1,1.59,1.22c.31.56,0,.85-1,.85h-4.88a59.42,59.42,0,0,0-6.56.37,32.06,32.06,0,0,0-5,.56,2.83,2.83,0,0,1-2.9-1.12q-1.32-1.69.75-1.41a26.32,26.32,0,0,0,5.06.1Z" transform="translate(-8.15 -10.96)"/><path class="cls-1" d="M264,351.52q6.56-1.49,8-2.25c.93-.49,1.84-.24,2.72.75a10,10,0,0,1,1.78,2.25q.47.94-.66,1.5a32.23,32.23,0,0,0-4,2.82q-2.91,2.25-9.66,7.12a40.57,40.57,0,0,1-3.84,10.5,26.85,26.85,0,0,1-8.81,10.41,7.36,7.36,0,0,1-2.16,1.22q-.37-.19,2.34-3.19a38.63,38.63,0,0,0,5.16-7.5,41.71,41.71,0,0,0,3.28-7.31,28.36,28.36,0,0,0,1-4.32,15,15,0,0,0,.1-2.9c-.07-.94.28-1.22,1-.85a5.86,5.86,0,0,1,2.44,2.07,50.4,50.4,0,0,0,4.78-4.6q2.89-3.09,3.84-4.22c.5-.87.47-1.31-.09-1.31s-3.79.69-9.66,2.06-9.69,2.19-11.06,2.82-2.69.25-3.94-1.13-.88-2,1.13-1.78a31.06,31.06,0,0,0,6.37-.09C256.35,353.21,259.66,352.53,264,351.52Z" transform="translate(-8.15 -10.96)"/><path class="cls-1" d="M253.54,397.68c.25-.37.81-.37,1.69,0a6.83,6.83,0,0,1,2.06,1.31,1.42,1.42,0,0,1,0,1.69,7.28,7.28,0,0,0-.75,3,11.54,11.54,0,0,0,.19,4.6,9.49,9.49,0,0,0,2.25,4.4q5.81-2.62,7.12-3.28c.87-.44,1.37-.84,1.5-1.22a1.93,1.93,0,0,1,.66-1.12c.31-.25.84-.06,1.59.56a2.63,2.63,0,0,1,1.13,2c0,.69-.88,1.34-2.63,2a48.12,48.12,0,0,0-5,1.59q-2.16.84-4.78,2.16a31,31,0,0,0-4.87,3,8.23,8.23,0,0,0-3,3.75,5.21,5.21,0,0,0-.1,4.22,5.52,5.52,0,0,0,3.85,3.09,24.41,24.41,0,0,0,7.4.47,28.19,28.19,0,0,0,6.66-1c1.37-.5,2.31-.6,2.81-.28a2,2,0,0,1,.94,1.21c.12.51-.41,1.07-1.6,1.69s-4,1-8.34,1.13-7.75-.38-10.12-1.5-3.75-2.69-4.13-4.69a8.9,8.9,0,0,1,.75-6.19q1.5-3,7.88-6.37a14.51,14.51,0,0,1-2.54-6.1,21.24,21.24,0,0,1-.28-5,8,8,0,0,0-.28-3.37C253.32,398.5,253.29,397.93,253.54,397.68Z" transform="translate(-8.15 -10.96)"/><path class="cls-1" d="M261.23,472.12c-1.13,0-2.76.06-4.88.19a48.29,48.29,0,0,0-6.56.84q-3.37.66-4.5.75a4.23,4.23,0,0,1-2.72-1.12c-1.06-.82-.91-1.22.47-1.22s3.94-.19,7.69-.57,6.84-.78,9.28-1.21,4.24-.35,5.43.28,1.69,1.15,1.5,1.59-.9.66-2.15.66A34.47,34.47,0,0,0,261.23,472.12Zm-14.35-17.63c-1.06,1-1.75.94-2.06-.18a3.18,3.18,0,0,1,.75-3.1,15.15,15.15,0,0,0,2-2.81c.5-.94.9-1.69,1.22-2.25s.65.09,1,2c.75,0,2.4-.12,5-.38s4.75-.49,6.56-.75,3.75-.56,5.81-.93a29.13,29.13,0,0,0,4.6-1.13,3.22,3.22,0,0,1,2.62,0,15.65,15.65,0,0,1,3,2.25q1.88,1.69-.47,2.06a11.18,11.18,0,0,0-4.69,2.07q-2.34,1.68-1.5,0c.57-1.13,1-2.07,1.32-2.82s.25-1.15-.19-1.21a60,60,0,0,0-6.84.65q-6.19.75-9.85,1.13c-2.44.25-4.22.37-5.34.37A13.27,13.27,0,0,1,246.88,454.49Zm18.28,1.22c2.13-.68,3.75-.71,4.88-.09s1.06,1.16-.19,1.59a23.32,23.32,0,0,1-4.31,1c-1.63.26-3.22.47-4.78.66a8.31,8.31,0,0,1-3.85-.28c-.37,1.12-1,3.13-1.87,6q12.56-1.31,13.87-2a3.63,3.63,0,0,1,3.1.09,7.84,7.84,0,0,1,2.72,1.79,1.37,1.37,0,0,1,0,2.06q-.94,1-1.41,7T270,482.43c-1.88,1.88-3,2.19-3.38.94a7.41,7.41,0,0,0-2.43-3.47c-1.26-1.06-1.35-1.47-.29-1.22a21.18,21.18,0,0,1,2.82.85q1.22.47,2.34-1.5c.75-1.32,1.31-3.72,1.69-7.22s.12-5.41-.75-5.72a10.92,10.92,0,0,0-4.41-.1q-3.09.39-6.75.94a19.61,19.61,0,0,0-5.15,1.31c-1,.51-1.66.26-2-.75a2.14,2.14,0,0,1,.56-2.43c.68-.63,1.34-2.25,2-4.88a28.64,28.64,0,0,0,.94-5.44,11.66,11.66,0,0,0-.29-2.81c-.18-.75.1-1,.85-.65a17.48,17.48,0,0,1,2.34,1.21c.81.51,1,1.07.66,1.69a27.52,27.52,0,0,0-1.69,4.13A42.65,42.65,0,0,0,265.16,455.71Z" transform="translate(-8.15 -10.96)"/><path class="cls-1" d="M266.38,493.72a5.15,5.15,0,0,1,3.1-.28,2.17,2.17,0,0,1,1.21.93c.19.38-.28.72-1.4,1s-4,.84-8.63,1.59q-1.12,3-1.87,4.5a27.08,27.08,0,0,0,5.72-1.22,2.38,2.38,0,0,1,2-.09,11.84,11.84,0,0,1,2.25,1,1.1,1.1,0,0,1,.37,1.78,11.45,11.45,0,0,0-1.12,4.59c-.26,2.32-.44,5.6-.57,9.85q4.88-.57,7.5-.94a8,8,0,0,1,4.6.56,4.27,4.27,0,0,1,2.34,2c.25.69-.81.91-3.19.66a59.45,59.45,0,0,0-8.34-.19c-3.19.13-6.69.37-10.5.75s-7.13.78-9.94,1.22-5,.84-6.47,1.22a3.59,3.59,0,0,1-3.65-.85c-.94-.93-1-1.37-.1-1.31a30,30,0,0,0,4.32-.19c2-.18,4.68-.53,8.06-1q0-9.37-.28-12.19a11.14,11.14,0,0,0-1-4.12c-.51-.87-.07-1.19,1.31-.94a13.57,13.57,0,0,0,4.5,0,22.49,22.49,0,0,0,1.31-4.5c-2.5.25-4.12.41-4.87.47a4.61,4.61,0,0,1-2.54-.66c-.93-.49-.59-.81,1-.93a65.63,65.63,0,0,0,7.12-1.13,13.32,13.32,0,0,0,.56-2.62A6.55,6.55,0,0,0,259,490c-.26-.81.06-1.06.93-.75a20.33,20.33,0,0,1,2.44,1c.75.37.87.81.38,1.31a7.34,7.34,0,0,0-1.32,3.38C263.29,494.56,264.94,494.16,266.38,493.72Zm-8.62,30.19c-.57.43-2,1.68-4.32,3.75a21,21,0,0,1-6.56,4.21c-2.06.75-2.31.57-.75-.56a21.33,21.33,0,0,0,3.85-3.47c1-1.18,1.87-2.28,2.62-3.28A8.17,8.17,0,0,0,254,522q.27-1,2.34.09C257.85,522.87,258.32,523.47,257.76,523.91Zm-3.47-17.54c2.5-.49,4.28-.9,5.34-1.21a3.59,3.59,0,0,1,2.81.18c.82.44.63.85-.56,1.22a34.73,34.73,0,0,1-7.59.75v3.19a49,49,0,0,0,5.81-1.31,2.21,2.21,0,0,1,2.53.37c.56.63-.31,1.1-2.62,1.41a44.9,44.9,0,0,1-5.72.47v3a28.61,28.61,0,0,0,5.72-1c1.31-.44,2.28-.35,2.9.28s0,1.12-1.78,1.5a28.26,28.26,0,0,1-6.84.37v3.38q7.68-.75,10.87-1.32v-9.37a43.22,43.22,0,0,0-.18-4.78c-.13-.94-.85-1.34-2.16-1.22s-4.16.5-8.53,1.12Zm9.37,15.57q-.37-.95,2.91.65a9.6,9.6,0,0,1,4.5,3.94c.81,1.56.94,2.84.37,3.84s-1.21,1.16-2,.47a27.42,27.42,0,0,1-3.38-4.4Q264,522.87,263.66,521.94Z" transform="translate(-8.15 -10.96)"/><path class="cls-1" d="M271.26,541.78a3.85,3.85,0,0,1,3.56.28,13.7,13.7,0,0,1,3.28,2.34c.87.88.56,1.41-.94,1.59a12,12,0,0,0-4.78,1.88q-2.53,1.59-1.69-.28c.57-1.25,1-2.22,1.22-2.91s-.06-1-.93-1a66.35,66.35,0,0,0-7.13.94q-5.82.93-9.66,1.4a27,27,0,0,1-5.53.29,16.48,16.48,0,0,1-2.9,5.71c-1.07,1.19-1.78,1.22-2.16.1a3.25,3.25,0,0,1,.47-3.1,29.91,29.91,0,0,0,2-3.09c.62-1.12,1.18-2.16,1.69-3.09s.93-.16,1.31,2.34q3.38-.18,12-1.5-2.82-2.25-4.41-3.75c-1.06-1-1-1.5.1-1.5a10.75,10.75,0,0,1,3.09.38,4.26,4.26,0,0,1,2.06,1.4c.56.69.53,1.78-.09,3.28C267,542.84,270.19,542.28,271.26,541.78ZM259.35,554.9A20.65,20.65,0,0,0,255.6,557a13.08,13.08,0,0,1,4.13,3.38l1.68.75q5.25-5.82,5.07-7.22c-.13-.94.24-1.25,1.12-.94a6.31,6.31,0,0,1,2.44,1.69c.75.81.68,1.38-.19,1.69s-3.31,2.09-7.31,5.34a71.92,71.92,0,0,0,9.65,5.25,35.15,35.15,0,0,0,6.57,1.78c2.43.44,2.81.85,1.12,1.22s-3.65.72-5.9,1-4.41-.62-6.47-2.81a47.55,47.55,0,0,0-7.41-6.28,24,24,0,0,1,2.06,8.81,20.54,20.54,0,0,1-.65,5.72,8.45,8.45,0,0,1-2.07,3.56c-.93.94-1.68.87-2.25-.19a8.4,8.4,0,0,0-3.09-3q-2.25-1.4.47-.84c1.81.38,3.09.25,3.84-.37s1.16-2.07,1.22-4.32a25.28,25.28,0,0,0-.47-6,40.19,40.19,0,0,1-6,5.35,17.16,17.16,0,0,1-6.18,2.72q-3.37.75-1-.38a39.21,39.21,0,0,0,5.82-3.66,31.89,31.89,0,0,0,6.47-6.46,11.53,11.53,0,0,0-.94-2.07,39.43,39.43,0,0,1-3.66,3.19,15.87,15.87,0,0,1-5.34,2.63c-2.13.62-2,.25.37-1.13a25.17,25.17,0,0,0,7.13-6.75,4.81,4.81,0,0,0-.94-1.31,21.42,21.42,0,0,1-7.12,2.72c-1.76.18-1.85-.06-.29-.75a31.47,31.47,0,0,0,5.07-2.91,14.51,14.51,0,0,0,3.84-3.56,7.72,7.72,0,0,1-4.12-.85c-.88-.56-.75-.9.37-1s2.63-.34,4.5-.65,3.78-.72,5.72-1.22,3.31-.38,4.12.37.19,1.41-1.87,2a44.35,44.35,0,0,1-6.09,1.22C260,553.9,260.1,554.65,259.35,554.9Z" transform="translate(-8.15 -10.96)"/><path class="cls-1" d="M195.94,13.68c.25-.37.81-.37,1.69,0A6.83,6.83,0,0,1,199.69,15a1.42,1.42,0,0,1,0,1.69,7.28,7.28,0,0,0-.75,3,11.54,11.54,0,0,0,.19,4.6,9.49,9.49,0,0,0,2.25,4.4q5.81-2.62,7.12-3.28c.87-.44,1.37-.84,1.5-1.22a1.93,1.93,0,0,1,.66-1.12c.31-.25.84-.06,1.59.56a2.63,2.63,0,0,1,1.13,2c0,.69-.88,1.34-2.63,2a48.12,48.12,0,0,0-5,1.59q-2.16.84-4.78,2.16a31,31,0,0,0-4.87,3,8.23,8.23,0,0,0-3,3.75,5.21,5.21,0,0,0-.1,4.22,5.52,5.52,0,0,0,3.85,3.09,24.41,24.41,0,0,0,7.4.47,28.19,28.19,0,0,0,6.66-1c1.37-.5,2.31-.59,2.81-.28a2,2,0,0,1,.94,1.21c.12.51-.41,1.07-1.6,1.69s-4,1-8.34,1.13-7.75-.38-10.12-1.5-3.75-2.69-4.13-4.69a8.9,8.9,0,0,1,.75-6.19q1.5-3,7.88-6.37a14.51,14.51,0,0,1-2.54-6.1,21.24,21.24,0,0,1-.28-5,8,8,0,0,0-.28-3.37C195.72,14.5,195.69,13.93,195.94,13.68Z" transform="translate(-8.15 -10.96)"/><path class="cls-1" d="M191.72,77.24a68.19,68.19,0,0,0-.19,8c.06,3.69.06,6.4,0,8.15a9.82,9.82,0,0,1-.75,3.94c-.44.87-1,.63-1.59-.75a6.86,6.86,0,0,1-.38-4.5,51.52,51.52,0,0,0,.75-8.81q.19-6.37-.56-8.63a26.83,26.83,0,0,1-6.56,7c-2.13,1.43-2.44,1.34-.94-.29a36.38,36.38,0,0,0,4.31-5.81,75.38,75.38,0,0,0,4.13-7.87q2.06-4.5,1.69-6.38c-.26-1.25.12-1.65,1.12-1.22a6.47,6.47,0,0,1,2.25,1.5c.5.57.72,1,.66,1.22a3.63,3.63,0,0,1-.75,1.13,17.68,17.68,0,0,0-2,3.56,55.93,55.93,0,0,1-3.19,5.81A4,4,0,0,1,191.72,77.24Zm11.34,5.25v3c2.63-.63,4.13-.75,4.5-.38s.28.75-.28,1.13a16,16,0,0,1-4.22,1.31V90l3.94-.84c1.5-.32,2.06-.29,1.69.09s-2.28,1.12-5.72,2.25-5.32,1.78-5.63,2a4.55,4.55,0,0,1-1.31.47c-.56.12-1.22-.41-2-1.6s-.62-1.62.38-1.31,3.31,0,6.94-.84V87.93c-2.63.25-4.26.18-4.88-.19s-.47-.66.47-.84,2.4-.54,4.41-1v-3l-2.44.57c-.38.87-.82.84-1.31-.1a15.64,15.64,0,0,1-1.22-2.9,24.34,24.34,0,0,0-1.13-2.91,14.35,14.35,0,0,0-1.12-2.06,2.19,2.19,0,0,1-.47-.85c0-.25.43-.37,1.31-.37a42.37,42.37,0,0,0,6.38-1.13v-3q-5.62.94-7.13.47c-1-.31-1-.53,0-.65s3.31-.63,6.94-1.5a9.13,9.13,0,0,0-.38-3.38,21.19,21.19,0,0,1-3.65.66c-.94.06-.72-.22.65-.85a37.59,37.59,0,0,0,3.94-2.06,4.18,4.18,0,0,0,2.16-2.34,1,1,0,0,1,1.5-.85,9.23,9.23,0,0,1,2.43,1.22c.82.57.94,1,.38,1.22s-1.41.56-2.53.94a19.22,19.22,0,0,0-3.38,1.5l1.32.94-.38,2.43a36.21,36.21,0,0,1,5.25-1,3.05,3.05,0,0,1,2.16.47c.43.38.31.69-.38.94s-3,.75-7,1.5v2.81a12.65,12.65,0,0,0,3.56-1.31c.5-.38,1.19-.31,2.07.19A10.26,10.26,0,0,1,211,73a1,1,0,0,1,0,1.59,8.17,8.17,0,0,0-1.69,3.19,16.86,16.86,0,0,1-1.78,3.85c-.62.93-1.19,1.09-1.68.46Zm-4.5-.19,2.82-.56v-3a7,7,0,0,1-3.19-.47c-.5-.31.56-.72,3.19-1.22V74.24l-4.88.94Zm4.69-5.81a2.67,2.67,0,0,1,1.5-.38c.75,0,1.06.29.94.85s-.94,1-2.44,1.4L203.06,81l3.19-.38a27.2,27.2,0,0,0,1.22-5.06c.19-1.5.19-2.34,0-2.53s-1.59.09-4.22.84ZM215.06,65.9c-.5-1.07-.31-1.47.57-1.22a8.66,8.66,0,0,1,2.43,1.12q1.13.75.66,1.5a7.89,7.89,0,0,0-.84,2.16,32.42,32.42,0,0,0-.75,4.22,10,10,0,0,0,1.4-.47q.66-.28,1.5-.75a2.46,2.46,0,0,1,2.25.19,7.19,7.19,0,0,1,1.88,1.12c.31.31.25.88-.19,1.69a18.76,18.76,0,0,0-1.13,5.62,48.66,48.66,0,0,1-1.4,7.78,14.16,14.16,0,0,1-2.06,4.79A8,8,0,0,1,217,95.71c-.81.43-1.34.31-1.59-.38a12.36,12.36,0,0,0-2.06-3.65c-.51-.63-.69-1-.57-1.13s.59,0,1.41.38a10.36,10.36,0,0,0,2.16.75c.62.12,1.34-.94,2.15-3.19a33,33,0,0,0,1.69-6.94,45.35,45.35,0,0,0,.47-5.06c0-1-.16-1.62-.47-1.88s-1.35-.06-3.09.57q-2.25,9.18-4.79,13.59A17.84,17.84,0,0,1,207.09,95c-1.81,1.18-1.94.87-.37-.94a31.68,31.68,0,0,0,4.5-7.41,45.78,45.78,0,0,0,3.28-10.87,2.11,2.11,0,0,1-2.53-.19c-.82-.62-.78-.94.09-.94a8.35,8.35,0,0,0,2.63-.37Q215.82,67.49,215.06,65.9Z" transform="translate(-8.15 -10.96)"/><path class="cls-1" d="M187.31,114.82c.25-.25.81-.22,1.69.09a4.47,4.47,0,0,1,2.06,1.41c.5.5.5,1.12,0,1.87a11.42,11.42,0,0,0-1.31,3.56,21.86,21.86,0,0,0-.94,5.54,10.55,10.55,0,0,0,1.13,5.71,7.46,7.46,0,0,0,1.87,2.91c.5.31,1,.16,1.5-.47s1.16-2,2.35-4,1.78-2.91,1.78-2.53a16.53,16.53,0,0,1-.85,3.19,40.09,40.09,0,0,0-1.21,4.5,25.16,25.16,0,0,0-.47,3c-.07.75-.35,1.19-.85,1.31s-1.66-.62-3.09-1.88a14.66,14.66,0,0,1-3.66-5.25,14.91,14.91,0,0,1-.75-8.34q.75-5,1.13-6.66a5.42,5.42,0,0,0-.28-2.81C187.09,115.32,187.06,114.94,187.31,114.82Zm21,2.62c.13-.25,1,.1,2.63,1a21.21,21.21,0,0,1,4.31,3.28,12.67,12.67,0,0,1,2.53,4.22,13.65,13.65,0,0,1,.85,4.6,10.94,10.94,0,0,1-.47,3.56,6.06,6.06,0,0,1-1.41,2.25c-.63.63-1.22.53-1.78-.28a11.63,11.63,0,0,0-3.09-2.72,13.39,13.39,0,0,1-2.44-2.06c-.13-.25.5-.13,1.87.37s2.41.63,3.1.75,1.15.07,1.4-.19a4.86,4.86,0,0,0,.19-1.78,17.85,17.85,0,0,0-.37-3.28,14.06,14.06,0,0,0-2.07-4.22,17.39,17.39,0,0,0-3.37-3.65C208.81,118.19,208.19,117.57,208.31,117.44Z" transform="translate(-8.15 -10.96)"/><path class="cls-1" d="M209.25,160.4a37.62,37.62,0,0,1,6.09-.94,3.47,3.47,0,0,1,2.54.94,3,3,0,0,1,.75,1.78c0,.56-.38.85-1.13.85a15.88,15.88,0,0,0-4.59.46,15.31,15.31,0,0,0-6.66,3.47,16.53,16.53,0,0,0-5.16,5.82,13.47,13.47,0,0,0-1.59,6,11.08,11.08,0,0,0,.94,5.34,7.38,7.38,0,0,0,3.19,3.66,10.23,10.23,0,0,0,3.75,1.31,12.5,12.5,0,0,0,3,0,1.54,1.54,0,0,1,1.68.65c.38.57.19,1.1-.56,1.6a5.44,5.44,0,0,1-3.28.65,13.47,13.47,0,0,1-5-1.4,11.54,11.54,0,0,1-4.59-4.6,13,13,0,0,1-1.6-7.21,15,15,0,0,1,3.19-8.63,27.89,27.89,0,0,1,9.75-8.06,111.57,111.57,0,0,0-11.25,2.34c-4.12,1.07-6.81,1.72-8.06,2a5.69,5.69,0,0,1-3.19-.47c-.88-.43-1.38-.84-1.5-1.22s.81-.75,2.81-.75a51.63,51.63,0,0,0,9.38-1.31Z" transform="translate(-8.15 -10.96)"/><path class="cls-1" d="M187.31,210.82c.25-.25.81-.22,1.69.09a4.47,4.47,0,0,1,2.06,1.41c.5.5.5,1.12,0,1.87a11.42,11.42,0,0,0-1.31,3.56,21.86,21.86,0,0,0-.94,5.54,10.55,10.55,0,0,0,1.13,5.71,7.46,7.46,0,0,0,1.87,2.91c.5.31,1,.16,1.5-.47s1.16-2,2.35-4,1.78-2.91,1.78-2.53a16.53,16.53,0,0,1-.85,3.19,40.09,40.09,0,0,0-1.21,4.5,25.16,25.16,0,0,0-.47,3c-.07.75-.35,1.19-.85,1.31s-1.66-.62-3.09-1.88a14.66,14.66,0,0,1-3.66-5.25,14.91,14.91,0,0,1-.75-8.34q.75-5,1.13-6.66a5.42,5.42,0,0,0-.28-2.81C187.09,211.32,187.06,210.94,187.31,210.82Zm21,2.62c.13-.25,1,.1,2.63,1a21.21,21.21,0,0,1,4.31,3.28,12.67,12.67,0,0,1,2.53,4.22,13.65,13.65,0,0,1,.85,4.6,10.94,10.94,0,0,1-.47,3.56,6.06,6.06,0,0,1-1.41,2.25c-.63.63-1.22.53-1.78-.28a11.63,11.63,0,0,0-3.09-2.72,13.39,13.39,0,0,1-2.44-2.06c-.13-.25.5-.13,1.87.37s2.41.63,3.1.75,1.15.07,1.4-.19a4.86,4.86,0,0,0,.19-1.78,17.85,17.85,0,0,0-.37-3.28,14.06,14.06,0,0,0-2.07-4.22,17.39,17.39,0,0,0-3.37-3.65C208.81,214.19,208.19,213.57,208.31,213.44Z" transform="translate(-8.15 -10.96)"/><path class="cls-1" d="M202.88,253.06a5,5,0,0,1,2.15.75,1.37,1.37,0,0,1,.66,1.5,10.2,10.2,0,0,0-.56,2.62,33.06,33.06,0,0,0-.19,3.75,19.84,19.84,0,0,0,4.12-1.12l2.82-1.13a2,2,0,0,1,1.68,0,1.72,1.72,0,0,1,.94.94c.12.25-.31.59-1.31,1a30.42,30.42,0,0,1-3.38,1.22,49,49,0,0,1-4.87,1.12v6.38a25.79,25.79,0,0,0,4.59-1.41,14.51,14.51,0,0,1,2.16-.84,1.94,1.94,0,0,1,1.5.37c.62.38.5.82-.38,1.32a27.63,27.63,0,0,1-3.37,1.4,36.36,36.36,0,0,1-4.5,1.22v7.88a44.53,44.53,0,0,1,5.25,2.81,32.53,32.53,0,0,1,3,2.25A3.51,3.51,0,0,1,214.5,287a2.63,2.63,0,0,1-.37,1.88c-.51.62-1.22.37-2.16-.75a20.34,20.34,0,0,0-3.09-3,49.24,49.24,0,0,0-4.13-2.81,8.19,8.19,0,0,1-2.91,5.15,7.6,7.6,0,0,1-4.59,1.6,8.93,8.93,0,0,1-4.22-.85,5.06,5.06,0,0,1-2.34-2.9,4.22,4.22,0,0,1,.28-4.13c.81-1.37,2.34-2.25,4.59-2.62a14.17,14.17,0,0,1,7.13.75v-6.75a25.34,25.34,0,0,1-5.72.09,6.11,6.11,0,0,1-2.91-1c-.75-.62-.47-.87.85-.75s2.4.19,3.28.19,2.37-.31,4.5-.57v-6.56a19.54,19.54,0,0,1-3.19.1c-.75-.07-1.63-.16-2.62-.29a5.83,5.83,0,0,1-2.72-1c-.82-.56-.54-.78.84-.65a28.32,28.32,0,0,0,3.94.09c1.37-.06,2.62-.15,3.75-.28v-3.56a14.63,14.63,0,0,0-.19-2.63l-.75-1.87C201.5,253.18,201.87,252.93,202.88,253.06Zm-3.19,27.37a23.23,23.23,0,0,0-2.72-.19,5.17,5.17,0,0,0-2.53.75,2.83,2.83,0,0,0-1.88,1.79,2.8,2.8,0,0,0,.57,2.53,3.73,3.73,0,0,0,3,1.59,6.25,6.25,0,0,0,4.12-.84q1.69-1.32,2.25-4.69A9.47,9.47,0,0,0,199.69,280.43Z" transform="translate(-8.15 -10.96)"/><path class="cls-1" d="M202.88,300.84a6.84,6.84,0,0,1,2.34.37,2.9,2.9,0,0,1,1.41.94c.24.25.24.69,0,1.31s-.38,2.57-.38,5.82q7.13-.94,9.66-1.22a7.84,7.84,0,0,1,3.84.28,2.61,2.61,0,0,1,1.59,1.31c.31.63-.09.94-1.21.94a44.6,44.6,0,0,0-5.35-.1q-3.47.11-8.53.66c0,1.88.06,4.06.19,6.56a21.57,21.57,0,0,1,.47,5.63,17.14,17.14,0,0,1-1.41,6.37,13.94,13.94,0,0,1-3.75,5.07,17.53,17.53,0,0,1-4.87,3,8,8,0,0,1-3.29.75c-.44-.13.1-.51,1.6-1.13a24.23,24.23,0,0,0,4.87-3.84,16.08,16.08,0,0,0,4.13-7,4.93,4.93,0,0,1-3.28,2,3.44,3.44,0,0,1-3.1-.84,5.78,5.78,0,0,1-1.78-3.28,9.84,9.84,0,0,1-.09-4,6.9,6.9,0,0,1,1.5-3.19,5.1,5.1,0,0,1,2.81-1.69,5.57,5.57,0,0,1,3.94.94c0-1.25-.07-2.94-.19-5.06q-5.44.75-8.44,1.31a48.59,48.59,0,0,0-4.87,1.13,4.63,4.63,0,0,1-3.19,0,5.54,5.54,0,0,1-1.87-1.5c-.63-.75,0-1.07,1.78-.94a32.44,32.44,0,0,0,6.65-.38l9.94-1.5a27.12,27.12,0,0,0-.56-5.43,6.75,6.75,0,0,0-1.13-2.07C201.81,301.21,202,300.84,202.88,300.84ZM201,317.34a2.58,2.58,0,0,0-1.87,1A4.43,4.43,0,0,0,198,320.9a8.92,8.92,0,0,0,0,2.63,3.86,3.86,0,0,0,1.13,2.25,1.67,1.67,0,0,0,2,.56,4.53,4.53,0,0,0,2.16-1.5,5.52,5.52,0,0,0,.84-2.81,11,11,0,0,0-.09-2.63,2.69,2.69,0,0,0-1.22-1.59A3.64,3.64,0,0,0,201,317.34Z" transform="translate(-8.15 -10.96)"/><path class="cls-1" d="M133.09,33.39c1.12-1.87,1.47-2.25,1-1.12a13.47,13.47,0,0,0-.84,3.75,6,6,0,0,0,.46,3.75,6.32,6.32,0,0,0,3.66,3,18,18,0,0,0,7,.66,37.47,37.47,0,0,0,7.22-1c1.88-.49,3.25-.9,4.13-1.21s1.43-.16,1.68.46a2,2,0,0,1-.37,1.6,5.43,5.43,0,0,1-2.63,1.59A28.17,28.17,0,0,1,147.71,46a32.27,32.27,0,0,1-8.62-.38,10,10,0,0,1-5.72-2.72,7.07,7.07,0,0,1-2-4.22A8.38,8.38,0,0,1,133.09,33.39Zm3.37-16.68c-.75-.63-.18-.72,1.69-.28a23.57,23.57,0,0,0,6.56.46,23.17,23.17,0,0,0,5.07-.65,2.94,2.94,0,0,1,2.43.09,2.62,2.62,0,0,1,1.22,1.5c.19.63-.09,1.07-.84,1.31a10.87,10.87,0,0,0-2.81.85c-1,.44-2.44,1.16-4.32,2.15a16,16,0,0,1-3.65,1.41c-.57.07-.35-.28.65-1s2.31-1.94,4.32-3.56a34.06,34.06,0,0,1-4.6-.28A25.43,25.43,0,0,1,138.9,18,9.11,9.11,0,0,1,136.46,16.71Z" transform="translate(-8.15 -10.96)"/><path class="cls-1" d="M139.09,61.72c-.25-1.12,0-1.59.84-1.4a7.11,7.11,0,0,1,2.53,1.21,1.25,1.25,0,0,1,.28,2q-.84,1-2,5.35,4.31-.57,6.28-1c1.31-.32,2.4-.6,3.28-.85a2.24,2.24,0,0,1,2.34.66c.69.69.59,1.16-.28,1.4s-2.66.57-5,.94-4.66.69-7,.94q-3.57,10.68-3.19,11.25a17.73,17.73,0,0,1,6.19-4.31,20.64,20.64,0,0,1,6.75-1.69,9.91,9.91,0,0,1,5.63,1.22A7.63,7.63,0,0,1,159.15,81a8.13,8.13,0,0,1,0,5.44A10.17,10.17,0,0,1,155,91.91a18.76,18.76,0,0,1-8.63,2.53c-3.63.31-5.56.35-5.81.09s1-.71,3.65-1a22.75,22.75,0,0,0,7.22-2,8.68,8.68,0,0,0,4.22-4.12,7.53,7.53,0,0,0,.85-4.5,5.19,5.19,0,0,0-2-3.28,7.79,7.79,0,0,0-4.22-1.41,11.9,11.9,0,0,0-6.47,1.41,14.25,14.25,0,0,0-5.53,4,7.64,7.64,0,0,1-2.53,2.53c-.57.19-1-.22-1.41-1.22a4.43,4.43,0,0,1,0-3.09c.38-.94,1.62-4.53,3.75-10.78a30.11,30.11,0,0,1-3.84.09,12.45,12.45,0,0,1-2.53-.47,6.41,6.41,0,0,1-2.07-1.31c-.5-.5-.18-.62.94-.38a30.27,30.27,0,0,0,3.47.19c1.19,0,2.65-.06,4.41-.19a25,25,0,0,0,.75-3.93A10,10,0,0,0,139.09,61.72Z" transform="translate(-8.15 -10.96)"/><path class="cls-1" d="M142.09,108.86c.12-.12.53.25,1.22,1.13a13.35,13.35,0,0,0,2.53,2.43,10,10,0,0,0,3.09,1.79,7.07,7.07,0,0,1,2.35,1.21,3,3,0,0,1,.28,1.79,5.42,5.42,0,0,1-.47,2c-.25.38-.85.26-1.78-.37a9,9,0,0,0-3.28-1.31,6.77,6.77,0,0,0-4.6.56,6.91,6.91,0,0,0-3.65,4.31,55.54,55.54,0,0,0-2.07,8.63q5.82-4.5,10.78-4.69a15.55,15.55,0,0,1,7.79,1.31,6.52,6.52,0,0,1,3.28,4.13,11.5,11.5,0,0,1,.09,5.25,9.07,9.07,0,0,1-2.62,4.12,14.8,14.8,0,0,1-5.82,2.81,28.46,28.46,0,0,1-8.15,1c-2.69-.07-4.1-.22-4.22-.47s.65-.41,2.34-.47a45.86,45.86,0,0,0,5.91-.66,24.15,24.15,0,0,0,5.81-2.15,8.45,8.45,0,0,0,3.56-3.1,9.33,9.33,0,0,0,.75-3.84,5.92,5.92,0,0,0-1.12-3.66,6.43,6.43,0,0,0-4.13-2.06,13.82,13.82,0,0,0-6,.19,13.61,13.61,0,0,0-5.53,2.9,19.42,19.42,0,0,0-3.28,3.28c-.5.75-1.06.91-1.69.47a1.78,1.78,0,0,1-.93-1.4,3.86,3.86,0,0,1,.37-2.25,41,41,0,0,0,1.5-4.88,29.58,29.58,0,0,1,2.06-6.37,7.46,7.46,0,0,1,4.5-3.94,10.68,10.68,0,0,1,6.57-.19,28.22,28.22,0,0,1-3.1-2.81,12,12,0,0,1-2-2.81C142,109.61,141.84,109,142.09,108.86Z" transform="translate(-8.15 -10.96)"/><path class="cls-1" d="M132,162.05a6.1,6.1,0,0,1,2.07,1.59,2.54,2.54,0,0,1,.18,3.1,32.28,32.28,0,0,0-1.78,3.84,22,22,0,0,0-1.22,5.35,19.38,19.38,0,0,0-.28,5.62,12.55,12.55,0,0,0,1.41,4.69c.62-1.38,1.25-2.75,1.87-4.13a6.47,6.47,0,0,1,1.32-2.25c.24-.12.21.5-.1,1.88a33,33,0,0,0-.65,3.75,19.34,19.34,0,0,0-.47,2.9c-.07.82-.1,1.54-.1,2.16s-.18,1-.56,1.13-.94-.25-1.69-1.13a14,14,0,0,1-2.15-3.84,18.63,18.63,0,0,1-1.22-6.1,25.14,25.14,0,0,1,.75-7.4q.93-3.84,1.5-5.72a6.6,6.6,0,0,0,.19-3.38,3.4,3.4,0,0,1-.19-1.87C131,161.86,131.34,161.8,132,162.05Zm9,18.38c.63-1.13,1-1.63,1.22-1.5s0,1-.47,2.62a5.48,5.48,0,0,0,.1,4.13,5.67,5.67,0,0,0,3.65,2.81,16.86,16.86,0,0,0,5.72.56,18.45,18.45,0,0,0,5.53-1.12c1.63-.63,2.56-.6,2.82.09a1.8,1.8,0,0,1-.57,2A8,8,0,0,1,155,191.3a33.55,33.55,0,0,1-6.19.19,16.24,16.24,0,0,1-5.44-1.41,6.36,6.36,0,0,1-3-2.9,5.8,5.8,0,0,1-.66-3.57A8.78,8.78,0,0,1,141,180.43Zm12.19-17.82a5.39,5.39,0,0,1,2.25-.47,3.67,3.67,0,0,1,1.69.85,2.16,2.16,0,0,1,.75,1.5c0,.5-.38.81-1.13.94a9.76,9.76,0,0,0-3.28,1.31,21.14,21.14,0,0,0-3.28,2.25c-1,.62-1.75,1.06-2.25,1.31s-.69.25-.56,0a10.05,10.05,0,0,1,1.87-2.34c1.13-1.19,2-2.16,2.63-2.91s.34-1-.85-.66l-3.84,1a5.09,5.09,0,0,1-3.19.09,1.92,1.92,0,0,1-1.12-1.22c-.25-.5.19-.66,1.31-.47a12.84,12.84,0,0,0,4.5-.28C150.53,163.18,152,162.86,153.15,162.61Z" transform="translate(-8.15 -10.96)"/><path class="cls-1" d="M143.4,207.07a10.45,10.45,0,0,0,3.19-.93,2.8,2.8,0,0,1,2.53-.1,18,18,0,0,1,2.34,1.32c.75.5.85.84.28,1a12.86,12.86,0,0,0-3.09,2.15,43.17,43.17,0,0,0-5.44,5.82,30.76,30.76,0,0,0,5.25-1.5,3,3,0,0,1,2.44-.1c.87.32,1.94.72,3.19,1.22s1.22,1.25-.1,2.25-2.53,2.88-3.65,5.63c1.12.87,1.22,1.43.28,1.68s-6.78,1.32-17.53,3.19q-.94,6.57,1.59,8.25t8.53,1.69a57.85,57.85,0,0,0,10.13-.75,23.4,23.4,0,0,0,5.81-1.6,4,4,0,0,0,2.16-2.15c.31-.88.75-2.41,1.31-4.6s.84-2.53.84-1a35.56,35.56,0,0,0,.19,3.85,11.82,11.82,0,0,0,.84,3.37c.44,1.07.07,2-1.12,2.81s-3.66,1.53-7.41,2.16a85.93,85.93,0,0,1-9.75,1.13,35.77,35.77,0,0,1-8.43-.66q-4.32-.84-5.72-3.84a14.27,14.27,0,0,1-1.13-7.13,65,65,0,0,0,.19-6.56,11.12,11.12,0,0,0-.75-3.94c-.44-1-.31-1.47.37-1.41a17.81,17.81,0,0,0,1.79.1c.49,0,3.31-.5,8.43-1.5a46.49,46.49,0,0,0,4.41-6.66c.68-1.43.56-2.09-.38-2l-2.9.38a3.75,3.75,0,0,1-2.44-.38q-4.87,4.32-6.56,5.07t.56-1.6a38.8,38.8,0,0,0,3.94-4.78,19.77,19.77,0,0,0,2.15-3.66A4.49,4.49,0,0,0,140,201c-.13-.75.34-.84,1.4-.28a10.26,10.26,0,0,1,2.35,1.59c.49.5.4,1-.29,1.5a18.46,18.46,0,0,0-3.09,3.57A21.15,21.15,0,0,0,143.4,207.07Zm-3.56,18.85c0-1.88,0-3.59-.1-5.16s-.4-2.22-1-2c-1.87.38-3.75.69-5.62.94v7.5Q135.72,226.86,139.84,225.92Zm8.25-1.69c.25-1.25.5-2.31.75-3.19a18.71,18.71,0,0,0,.56-3.09c.12-1.19-.44-1.62-1.69-1.31s-3.37.78-6.37,1.4c1.12.63,1.5,1.29,1.12,2s-.56,2.53-.56,5.53Z" transform="translate(-8.15 -10.96)"/><path class="cls-1" d="M146.78,277.6q4.31-8.07,6.93-14.07c.38-1-.28-1.34-2-1s-3.53.6-5.53.85a12.56,12.56,0,0,0-3.47,1.31c-.81.5-1.78.12-2.9-1.13a27.84,27.84,0,0,1-4.69,5.16q-1.5,1-1.5.84c-.13-.12.06-.47.56-1a37.48,37.48,0,0,0,2.44-3.28,38.55,38.55,0,0,0,3.19-6.28q1.5-3.66,1.12-5.34c-.25-1.13,0-1.53.85-1.22A7.91,7.91,0,0,1,144,253.6c.63.5.72,1,.28,1.59s-1.78,3-4,7.41c4-.25,7.19-.57,9.57-.94a9.32,9.32,0,0,0,4.59-1.69c.81-.75,1.53-.81,2.16-.19a14.08,14.08,0,0,1,1.21,1.78,1,1,0,0,1-.46,1.41q-.94.57-2.91,4t-6.47,11.35q3.75,2.81,3.94,4.31a4.5,4.5,0,0,1-.56,2.81c-.63.88-1.29.72-2-.47a31.28,31.28,0,0,0-2.72-3.84,35.53,35.53,0,0,0-4.22-4.6q-2.53-2.34-.47-1.59A33.59,33.59,0,0,1,146.78,277.6Z" transform="translate(-8.15 -10.96)"/><path class="cls-1" d="M146.59,308.44a17.53,17.53,0,0,0,3.65-.94,4.52,4.52,0,0,1,3-.09,12.31,12.31,0,0,1,3.47,1.78c1.25.88,1.56,1.75.94,2.62a7.42,7.42,0,0,0-1,4c-.07,1.81-.09,4.09-.09,6.84v6c0,1.25,0,2.53.09,3.84a13.48,13.48,0,0,1-1.31,5.35q-1.41,3.38-2.53.75a25.16,25.16,0,0,0-2.07-4,3,3,0,0,0-3-1.22c-1.37.12-2.75.18-4.12.18s-3.44.13-6.19.38c-.63,3.12-1.31,3.81-2.06,2.06a9.46,9.46,0,0,1-.56-5.62,65,65,0,0,0,.56-10.32c0-5-.28-8-.85-9.09s-.4-1.56.47-1.5a32.74,32.74,0,0,0,4.13-.09,30.53,30.53,0,0,0,2.53-5.16q1.41-3.47.84-4.78c-.37-.87-.28-1.34.28-1.41a7.78,7.78,0,0,1,3.1.85q2.25.93.56,2.72c-1.12,1.19-2.06,2.25-2.81,3.18a34.57,34.57,0,0,0-2.81,4.41Q144.34,308.82,146.59,308.44Zm-1.6,8.72c2.07-.56,3.41-.44,4,.37s-.63,1.47-3.75,2a37.09,37.09,0,0,1-7.88.56v5.07a57.74,57.74,0,0,0,6.84-1.13c2.19-.5,3.72-.43,4.6.19s.4,1.22-1.41,1.78-5.15.84-10,.84v5.82q4.5-.57,8.72-1c2.81-.31,4.56-.07,5.25.75s1.15,1,1.41.46a4.9,4.9,0,0,0,.46-1.68q.1-.94.1-6t-.1-7.5a41.68,41.68,0,0,0-.37-4.41,9.4,9.4,0,0,0-.84-3c-.38-.68-1.32-.94-2.82-.75l-11.62,1.41v7.5A42.69,42.69,0,0,0,145,317.16Z" transform="translate(-8.15 -10.96)"/><path class="cls-1" d="M133.56,364a36.13,36.13,0,0,1-5.16,4.21,14.07,14.07,0,0,1-3.56,1.88q-1.12.28,0-.75c.75-.69,1.93-1.75,3.56-3.19a32.39,32.39,0,0,0,4.88-5.62c1.62-2.31,2.53-4,2.71-5a5.23,5.23,0,0,0,0-2.44c-.18-.62,0-.94.66-.94a9.81,9.81,0,0,1,3.09.85c1.44.56,1.79,1.19,1,1.87a8.66,8.66,0,0,0-1.88,2.53A39.7,39.7,0,0,1,133.56,364Zm21.18,5.06a7.83,7.83,0,0,0-2,3.19q-.57,7.31-2.25,10.5a9.54,9.54,0,0,1-4.32,4.4c-1.75.81-2.65.59-2.72-.65a7.22,7.22,0,0,0-1.5-3.85c-.93-1.31-1-1.78-.18-1.4s2,.87,3.47,1.5q2.06,0,3.28-3.47a24,24,0,0,0,1.4-6.38,22.09,22.09,0,0,0,0-4.22,1.31,1.31,0,0,0-1.59-1.22c-.94.07-3.47.47-7.59,1.22q2.43,1.13,1.5,2.25a7.91,7.91,0,0,0-1.41,2.44,23.09,23.09,0,0,1-2.63,4.41,23.45,23.45,0,0,1-5,5.25,11.07,11.07,0,0,1-4.88,2.43c-1.38.19-1.53,0-.47-.65a25.85,25.85,0,0,0,4-3.19,26.27,26.27,0,0,0,4.69-6.09c1.5-2.56,2.12-4.66,1.88-6.28-1.13.25-2.19.53-3.19.84a3.45,3.45,0,0,1-3.19-.84c-1-.75-.63-1.16,1.13-1.22a83.84,83.84,0,0,0,8.62-1c3.62-.63,5.91-1.25,6.84-1.88s2.41-.31,4.41.94S155.56,368.34,154.74,369.09Zm-8.53-20.72a38.42,38.42,0,0,0,4.69,5.72,87.3,87.3,0,0,0,6.56,6.28,24.64,24.64,0,0,0,7,4.22q3.84,1.5,2.25,1.87a23.87,23.87,0,0,1-5.71.19c-2.76-.12-4.44-.62-5.07-1.5s-1.72-2.44-3.28-4.69-2.88-4.09-3.94-5.53-2.09-2.84-3.09-4.22a9.26,9.26,0,0,0-2.53-2.62,8.24,8.24,0,0,0-1.69-.75,1.15,1.15,0,0,1-.84-.66c-.13-.31.37-.47,1.5-.47A4.47,4.47,0,0,1,146.21,348.37Z" transform="translate(-8.15 -10.96)"/><path class="cls-1" d="M150.34,400.26a28.65,28.65,0,0,1,6.09-.94,3.62,3.62,0,0,1,2.91.94,2.8,2.8,0,0,1,.75,1.59c0,.44-.38.66-1.13.66a11.7,11.7,0,0,0-3.65.28,17,17,0,0,0-6.1,3.28,23.62,23.62,0,0,0-5.34,5.16,18.46,18.46,0,0,0-2.34,4.59,11.08,11.08,0,0,0-.66,5.35,8.32,8.32,0,0,0,2,5,7.67,7.67,0,0,0,4,2.43,16.57,16.57,0,0,0,3.66.57,2.91,2.91,0,0,1,2,.28,2.81,2.81,0,0,1,1.22,1.22c.13.5-.12.93-.75,1.31a7.31,7.31,0,0,1-3.75.37,14.77,14.77,0,0,1-6-2.25,10.38,10.38,0,0,1-4.31-5.43,11.78,11.78,0,0,1-.56-7.5,20,20,0,0,1,4.12-7.88,30,30,0,0,1,9-7.12q-3.93.18-12,2.62T130.28,407a4.22,4.22,0,0,1-2.16-1.12q-1-.94-.84-1.5c.12-.5.93-.6,2.43-.29s4.69-.09,9.57-1.21S147.71,400.76,150.34,400.26ZM152,410.2c.12-.12.87.12,2.25.75a14.72,14.72,0,0,1,3.18,1.87,2.56,2.56,0,0,1,.85,2.07,2.23,2.23,0,0,1-.85,1.68q-.75.57-1.5-.93a14.05,14.05,0,0,0-1.5-2.44,23.68,23.68,0,0,0-1.68-1.88C152.15,410.7,151.9,410.32,152,410.2Zm4.31-2.81c0-.25.65-.1,2,.46a13,13,0,0,1,3.28,2,2.19,2.19,0,0,1,.94,2.07,3.06,3.06,0,0,1-.75,1.68c-.51.26-1-.06-1.5-.93a19.05,19.05,0,0,0-1.5-2.25,10.87,10.87,0,0,0-1.69-2C156.46,407.85,156.21,407.51,156.34,407.39Z" transform="translate(-8.15 -10.96)"/><path class="cls-1" d="M136.93,458.88a36.11,36.11,0,0,0-.28,5.72q0,4.13-.09,8.25A32.72,32.72,0,0,1,136,479q-.47,2-1.78-.47a5.3,5.3,0,0,1-.65-4.31,25,25,0,0,0,.93-6q.28-4.12.29-6.75a11.8,11.8,0,0,0-.94-4.88,55.15,55.15,0,0,1-3.94,4.59,24.73,24.73,0,0,1-5,3.94q-2.91,1.79-.19-.94a48.06,48.06,0,0,0,5.07-6,62.1,62.1,0,0,0,3.75-5.81q1.4-2.54,2.25-4.5a4.94,4.94,0,0,0,.56-3c-.19-.68,0-1.06.47-1.12s1.31.37,2.44,1.31,1.52,1.56,1.21,1.87a13.48,13.48,0,0,0-1,1.22c-.37.5-1.12,1.63-2.25,3.38a46.13,46.13,0,0,0-2.43,4.12C136.4,456.85,137.12,458,136.93,458.88Zm14.81-5.43c2.19-.57,4.32-1.19,6.38-1.88a8.87,8.87,0,0,1,5.06-.47q2,.57,1.41,1.32t-5.53,1.87a78.45,78.45,0,0,1-8.35,1.5c1.63,1,2.35,1.81,2.16,2.44a19.82,19.82,0,0,0-.47,3.75,49.8,49.8,0,0,0,5.16-1.22,5,5,0,0,1,3.93.28q1.78.94-2.15,1.78a26.21,26.21,0,0,1-6.94.66v6.94c2.25-.5,4.15-1,5.72-1.41a5.68,5.68,0,0,1,4.41.47q2.06,1.13-2.07,1.87a29.32,29.32,0,0,1-8.06.38q0,9-.84,11.44c-.57,1.62-1.19,1.74-1.88.37a5.87,5.87,0,0,1-.47-4.22,26.94,26.94,0,0,0,.75-5.25q.19-3.09.28-9.47c.07-4.25-.22-7.12-.84-8.62a2.69,2.69,0,0,1-2.81-.75q-4.5,5.81-6.94,7.31t-.19-1.12a53,53,0,0,0,5.35-8.16,55.42,55.42,0,0,0,3.84-7.78,7.67,7.67,0,0,0,.47-3.75c-.19-1,.4-1.1,1.78-.28a6.13,6.13,0,0,1,2.34,1.87.75.75,0,0,1-.28,1,12.37,12.37,0,0,0-2.06,3.28q-1.5,2.91-3.56,6.47A13.12,13.12,0,0,0,151.74,453.45Z" transform="translate(-8.15 -10.96)"/><path class="cls-1" d="M146.78,507.46a11.89,11.89,0,0,1,5,.28,7.33,7.33,0,0,1,3.85,2.53,8.67,8.67,0,0,1,1.59,4.5,10.66,10.66,0,0,1-1,5.63,10.3,10.3,0,0,1-4.87,4.4,28.12,28.12,0,0,1-8.25,2.53q-4.69.57-5.07.1c-.25-.31.63-.66,2.63-1a42.56,42.56,0,0,0,6.19-1.69,20.38,20.38,0,0,0,5.43-2.81,7.47,7.47,0,0,0,2.44-4.69,9.68,9.68,0,0,0-.56-5.06,5.07,5.07,0,0,0-3.38-2.82,10.91,10.91,0,0,0-5.25.19,42.5,42.5,0,0,0-6.37,2.06,24.69,24.69,0,0,0-4.5,2.25c-.88.5-1.82.1-2.81-1.21s-.88-1.85.37-1.6a9.5,9.5,0,0,0,3.66-.37q2-.57,5.15-1.69A30.69,30.69,0,0,1,146.78,507.46Z" transform="translate(-8.15 -10.96)"/><path class="cls-1" d="M137.59,542.84c-.13-1.24.15-1.78.84-1.59a7.69,7.69,0,0,1,2.35,1.22c.75.5.9,1.06.46,1.69a7.3,7.3,0,0,0-1,2.25q-.37,1.3-.93,3.75a23.71,23.71,0,0,0,4.4-1.88,5.89,5.89,0,0,1,2.91-.94c.87,0,1.37.29,1.5.85s-1,1.34-3.38,2.34a41.2,41.2,0,0,1-5.81,2.06c-.5,2.25-1,4.54-1.59,6.85a63.54,63.54,0,0,1-2.35,7.4,49,49,0,0,1-2.72,5.91,29.79,29.79,0,0,1-1.78,2.91c-.37.49-.84.31-1.4-.57s-.35-1.93.65-3.18a33.39,33.39,0,0,0,3-5.82A82,82,0,0,0,136.46,553a23.27,23.27,0,0,1-3.47.09,11.94,11.94,0,0,1-2.34-.47,4.32,4.32,0,0,1-1.87-.93c-.38-.38.24-.5,1.87-.38a44,44,0,0,0,6.19-.56,36.73,36.73,0,0,0,.75-4.31A17.74,17.74,0,0,0,137.59,542.84Zm6.56,22.88c.5-.87.81-1.22.94-1a5.28,5.28,0,0,1-.38,2.34,6.1,6.1,0,0,0-.28,3.75,3.67,3.67,0,0,0,2.53,2.44,16.7,16.7,0,0,0,5.25.37c2.13-.12,3.63-.25,4.5-.37a9.46,9.46,0,0,1,2.07-.47,2.37,2.37,0,0,1,1.87.84c.62.63.62,1.16,0,1.6s-2.69.72-6.19.84a25.51,25.51,0,0,1-8.06-.94,5.17,5.17,0,0,1-3.37-2.81,6,6,0,0,1-.29-3.75A7.36,7.36,0,0,1,144.15,565.72Zm8.44-13.31c1.62-.38,2.81-.66,3.56-.85a3,3,0,0,1,2.44.66,7.13,7.13,0,0,1,1.87,1.41,1.91,1.91,0,0,1,.57,1.21c-.13.38-.66.63-1.6.75a13.64,13.64,0,0,0-2.9.75,33.85,33.85,0,0,0-3.66,1.5q-2,.95-2.16.75c-.25-.12.16-.59,1.22-1.4S154,555.66,155,555s1.21-1.06,1-1.31-1.16-.25-2.91,0l-3.94.56a2.8,2.8,0,0,1-2.25-.56c-.75-.5-.44-.78.94-.84S150.84,552.66,152.59,552.41Z" transform="translate(-8.15 -10.96)"/><path class="cls-1" d="M145.65,590a20.84,20.84,0,0,1,6.56.65,12.62,12.62,0,0,1,5.44,2.91,12,12,0,0,1,3.09,4.4,16.9,16.9,0,0,1,1.22,5.35,24.68,24.68,0,0,1-.37,5.9,14.87,14.87,0,0,1-3,6.47,16.53,16.53,0,0,1-5.81,4.6,27.13,27.13,0,0,1-6.19,2.15c-2,.26-3.16.28-3.47.1s.84-.66,3.47-1.41a22.31,22.31,0,0,0,7.22-4,13.73,13.73,0,0,0,4.4-5.91,16.46,16.46,0,0,0,1-6.09,20.18,20.18,0,0,0-.84-5.34,11,11,0,0,0-2.62-4.6,10,10,0,0,0-5.07-2.72,19.45,19.45,0,0,0-7.12-.18,24.88,24.88,0,0,1,1.69,10.4,26.8,26.8,0,0,1-2.25,8.91,21,21,0,0,1-4.41,6,8,8,0,0,1-4.22,2.25,5.4,5.4,0,0,1-3.94-1.31c-1.25-1-2.19-2.82-2.81-5.44a17.94,17.94,0,0,1,.19-8.53,17,17,0,0,1,4.12-7.78,17.26,17.26,0,0,1,6.57-5A21.14,21.14,0,0,1,145.65,590Zm-3.19,2.43a17.26,17.26,0,0,0-8.34,5,17,17,0,0,0-4,7.6,16.52,16.52,0,0,0-.38,6.84,10.7,10.7,0,0,0,1.69,4.22,3,3,0,0,0,2.53,1.31,6.13,6.13,0,0,0,3.66-1.69,18.66,18.66,0,0,0,3.47-5.25,25.46,25.46,0,0,0,2.15-7.5A31.58,31.58,0,0,0,142.46,592.43Z" transform="translate(-8.15 -10.96)"/><path class="cls-1" d="M92,18.82a8.55,8.55,0,0,1,2.34-.37,3.45,3.45,0,0,1,2.16.93,7.14,7.14,0,0,1,1.22,1.5c.18.38,0,.82-.47,1.32A8.23,8.23,0,0,0,95,24.82l-4.31,6.75a56.31,56.31,0,0,1-8.16,9,39.88,39.88,0,0,1-9.28,6.56q-4.32,1.88-4.5,1.6T72.3,46.2a58.78,58.78,0,0,0,8.34-6.85,54,54,0,0,0,7.41-8.53,73.21,73.21,0,0,0,4.13-6.94c.87-1.75,1.24-2.68,1.12-2.81s-.59-.31-1.41-.19-2.59.44-5.34.94-5.66.75-8.34,1.13-4.66.68-5.91.93a5,5,0,0,1-3.09-.18,3.89,3.89,0,0,1-1.78-1.5c-.38-.75.12-1.06,1.5-.94a43.12,43.12,0,0,0,5.62,0q3.38-.18,9.75-1.13T92,18.82Zm9.37-7.31A3.06,3.06,0,0,1,103.8,11a3.47,3.47,0,0,1,2.06,1.22,3.28,3.28,0,0,1,.85,2.15,4.94,4.94,0,0,1-.47,2.54A3.59,3.59,0,0,1,104,18.16a4,4,0,0,1-2.63-.28,3.34,3.34,0,0,1-1.68-2.06,3.91,3.91,0,0,1,0-2.44A2.77,2.77,0,0,1,101.36,11.51Zm2.25.75a2.05,2.05,0,0,0-2.81,1.5,3.29,3.29,0,0,0,0,1.59,2.38,2.38,0,0,0,.94,1.41,2.44,2.44,0,0,0,1.59.28,2.48,2.48,0,0,0,1.6-.66,2.29,2.29,0,0,0,.56-1.68,3.06,3.06,0,0,0-.38-1.69A2.75,2.75,0,0,0,103.61,12.26Z" transform="translate(-8.15 -10.96)"/><path class="cls-1" d="M90.86,70.26A35.58,35.58,0,0,0,96.68,69a2,2,0,0,1,2.25.65,11.42,11.42,0,0,1,1.87,2,1.48,1.48,0,0,1,0,2,11.05,11.05,0,0,0-2,3.66A75.08,75.08,0,0,0,96.3,87.88C97.55,89,98.11,89.79,98,90.23s-.75.59-1.88.46a21.11,21.11,0,0,0-4.31-.37,43,43,0,0,0-5.44.37,24.25,24.25,0,0,0-4.22.57,5.22,5.22,0,0,1-3.46-.57,9.07,9.07,0,0,1-.66,3c-.31.63-.78.44-1.41-.56a5.28,5.28,0,0,1-.75-3.94,36,36,0,0,0,.19-6.75q-.37-4.5-.56-6.37a9,9,0,0,0-.75-3c-.5-.87-.69-1.5-.56-1.88s.87-.37,2.25,0a24.22,24.22,0,0,0,5.9.1C84.89,71.1,87.74,70.76,90.86,70.26Zm4.69,1.5-3.47.47-6.65.84q-4.7.38-7.5.56.36,7.88.75,15.38a26.41,26.41,0,0,0,5.53-.28c2.31-.31,5.53-.6,9.65-.85q1.13-4.3,2.07-9.47t.93-5.9C96.86,71.88,96.42,71.63,95.55,71.76Z" transform="translate(-8.15 -10.96)"/><path class="cls-1" d="M75.3,123.87A18.32,18.32,0,0,1,80,126.12a3.86,3.86,0,0,1,1.69,2.25,2.74,2.74,0,0,1-.47,2.06c-.44.63-1,.56-1.6-.19s-1.19-1.4-1.68-2-1.13-1.22-1.88-2-1.78-1.46-2.72-2.15-1.34-1.09-1.22-1.22S73.17,123,75.3,123.87Zm21,4.12c1.75-1.62,3.56-3.47,5.44-5.53s2.87-3,3-2.72-.63,1.63-2.25,4.13a41.62,41.62,0,0,1-7.31,8.06,66,66,0,0,1-9.75,7.22,46.42,46.42,0,0,0-5.63,3.65,7.49,7.49,0,0,1-1.59,1c-.44.18-1.1-.16-2-1s-1.5-1.52-1.5-2,.43-.66,1.31-.66,2-.34,3.28-.66a23,23,0,0,0,5.35-2.34,70.48,70.48,0,0,0,6.09-4.41Q93.68,130.43,96.3,128Zm-21-14.25c-.13-.25,1,0,3.28.85a19.52,19.52,0,0,1,5,2.34A3.25,3.25,0,0,1,85.24,119a2.93,2.93,0,0,1-.38,2.06c-.37.51-1,.32-1.78-.56a32.19,32.19,0,0,0-2.53-2.44c-1-.87-2.13-1.74-3.37-2.62S75.3,114,75.3,113.74Zm16.31-1.5c.13-.12.94.19,2.44.94a9.38,9.38,0,0,1,3,2.06,2,2,0,0,1,.66,1.69,2.4,2.4,0,0,1-.66,1.5c-.5.37-1.06,0-1.69-1a21.23,21.23,0,0,0-2.43-3.28C91.8,112.87,91.36,112.24,91.61,112.24Zm3.38-3c.12-.12,1,.16,2.53.85a15.07,15.07,0,0,1,3.47,2,2.13,2.13,0,0,1,.37,2.44c-.37,1-.81,1.19-1.31.56S99,113.74,98.36,113a18.36,18.36,0,0,0-2.25-2.25C95.24,109.87,94.86,109.37,95,109.24Z" transform="translate(-8.15 -10.96)"/><path class="cls-1" d="M91.61,170.53a7.42,7.42,0,0,1,2.53-.57,2.61,2.61,0,0,1,2,1.13c.63.75.38,1.12-.75,1.12s-3.62.26-7.5.75c1.25.63,1.69,1.5,1.32,2.63s-.57,4-.57,8.62l6.57-.75a28.47,28.47,0,0,1,3-.18,3.12,3.12,0,0,1,2,.65,2.66,2.66,0,0,1,1,1.6c0,.5-.51.68-1.5.56a40.87,40.87,0,0,0-4.5-.19,55.78,55.78,0,0,0-9.1.56,44.56,44.56,0,0,0-7.59,1.32,3.12,3.12,0,0,1-3-1.13c-1-1-.88-1.43.37-1.31s4.63-.31,10.5-.94c.13-6.25,0-9.94-.37-11.06-1.88.25-3.25.47-4.13.65a4.82,4.82,0,0,1-2.06.1A3.88,3.88,0,0,1,78,172.68q-1-1.22,1.59-.84a31.62,31.62,0,0,0,6.47-.38Q90.12,170.91,91.61,170.53Z" transform="translate(-8.15 -10.96)"/><path class="cls-1" d="M86.36,208a2,2,0,0,1,.66-1.41c.31-.19.9,0,1.78.66a3.74,3.74,0,0,1,1.5,1.59,1.12,1.12,0,0,1-.56,1.22,10.26,10.26,0,0,0-1.69,1.69,11.08,11.08,0,0,0,5-.47c1.94-.57,3.28-1,4-1.22a1.61,1.61,0,0,1,1.88.09,14.65,14.65,0,0,1,1.87,1.6c.5.62.38,1.25-.37,1.87s-1.82,2.32-3.19,5.06a86.51,86.51,0,0,1-6.1,9.38,37.48,37.48,0,0,1-8,8.25,43.55,43.55,0,0,1-7.41,4c-2.06.81-3.16,1.15-3.28,1s.84-1,2.9-2.16a54.33,54.33,0,0,0,6.66-4.59,45.2,45.2,0,0,0,7.22-8.06A62.25,62.25,0,0,0,95,217.18q1.88-4.31,1.69-4.68c-.13-.25-1-.13-2.63.37a35.41,35.41,0,0,0-3.94,1,3.16,3.16,0,0,1-3-.84q-5.43,6.38-9.28,8.72c-2.56,1.56-3.91,2.28-4,2.15s.44-1,2.06-2.34a60.75,60.75,0,0,0,4.88-4.41,36.82,36.82,0,0,0,3.84-5.34A13.91,13.91,0,0,0,86.36,208Z" transform="translate(-8.15 -10.96)"/><path class="cls-1" d="M83.55,256.21c-.37-.75-.37-1.22,0-1.4a2.43,2.43,0,0,1,1.88.28A4.93,4.93,0,0,1,87,256.21c.31.38.28.94-.09,1.69s-.57,3.44-.57,8.06q6.19,2.63,9,4a12.11,12.11,0,0,1,3.75,2.54,3.35,3.35,0,0,1,.66,2.15,2.53,2.53,0,0,1-.66,1.6q-.75.38-2.34-1.41A32.6,32.6,0,0,0,92.55,271c-1.87-1.38-3.94-2.75-6.19-4.13q0,15.57.1,17.16c.06,1.06.09,2.22.09,3.47s-.16,1.81-.47,2.06-.65.19-1-.19a5.4,5.4,0,0,1-1.22-2.16,7.75,7.75,0,0,1-.09-3.65,64.41,64.41,0,0,0,.37-8.44q0-13.5-.09-15.66A13.09,13.09,0,0,0,83.55,256.21Z" transform="translate(-8.15 -10.96)"/><path class="cls-1" d="M82.61,303.09a4.58,4.58,0,0,1,2.16,1,2.37,2.37,0,0,1,1,1.78,9.41,9.41,0,0,1-1.12,2.25,32.3,32.3,0,0,0-2.25,4.69,20.33,20.33,0,0,1,5.9-.75,4.68,4.68,0,0,1,3.1,1.69q1.3,1.31.28,6T89.55,328a40.1,40.1,0,0,1-2.06,4.68A8.06,8.06,0,0,1,85.61,335a7.14,7.14,0,0,1-2.53,1.22c-.81.19-1.34,0-1.59-.65A11.22,11.22,0,0,0,80.18,333a16.65,16.65,0,0,0-1.88-2.34c-.63-.75-.81-1.19-.56-1.31s.81.12,1.69.75A22.16,22.16,0,0,0,82,331.68a2.48,2.48,0,0,0,2.15.28,5,5,0,0,0,1.69-2,28.25,28.25,0,0,0,1.88-4,55.54,55.54,0,0,0,1.4-6.09c.44-2.44.47-4,.1-4.59a2.77,2.77,0,0,0-2.25-1.22,21.92,21.92,0,0,0-5.07.65q-3,6.94-5.25,11.16t-3.56,6.47c-.88,1.5-1.56,2.34-2.06,2.53s-.88-.22-1.13-1.22a2.21,2.21,0,0,1,.38-2.53,20.84,20.84,0,0,0,2.62-3.28q1.69-2.44,6.19-12.38-3,.94-4.78,1.6a4,4,0,0,1-2.72.28A4.31,4.31,0,0,1,70,315.46c-.44-.87-.16-1.25.84-1.12a21.32,21.32,0,0,0,2.91.19,27.11,27.11,0,0,0,6.09-1.32q1.13-2.81,1.69-4.59a10.59,10.59,0,0,0,.56-2.34,9.64,9.64,0,0,0-.37-2.16C81.42,303.18,81.74,302.84,82.61,303.09Zm12.57-.38c-.88-.75-.63-.93.75-.56a10.86,10.86,0,0,1,3.37,1.5,2.24,2.24,0,0,1,1.31,2,2.67,2.67,0,0,1-.75,2c-.5.37-1,.19-1.4-.56A17.86,17.86,0,0,0,97.05,305,14.85,14.85,0,0,0,95.18,302.71ZM97.05,313q-3.75-3.75.47-1.22A26.14,26.14,0,0,1,104,317a9.31,9.31,0,0,1,2.34,4.5,11.77,11.77,0,0,1-.09,3.94,6.09,6.09,0,0,1-1.6,2.63,1.2,1.2,0,0,1-2-.19,12,12,0,0,0-2.54-2.25c-.93-.63-1.9-1.25-2.9-1.88s-.85-.78.84-.47,2.91.54,3.66.66a1.29,1.29,0,0,0,1.4-1c.19-.69-.15-1.91-1-3.66A24.16,24.16,0,0,0,97.05,313ZM99.11,299a7.82,7.82,0,0,1,2.35.47,11,11,0,0,1,2.53,1.22,2,2,0,0,1,1.22,1.59,2.7,2.7,0,0,1-.66,2c-.5.63-1.16.32-2-.93a11.54,11.54,0,0,0-2.72-3Q98.18,299,99.11,299Z" transform="translate(-8.15 -10.96)"/><path class="cls-1" d="M88.8,366.84c1.37,1.12,1.81,2.15,1.31,3.09a11.85,11.85,0,0,0-1,4.22,14.36,14.36,0,0,0,.1,4.5,4.74,4.74,0,0,0,1.59,2.72c.81.69,2.4,1.06,4.78,1.12a32.39,32.39,0,0,0,5.91-.28A7.86,7.86,0,0,0,105,380.9q1.22-.93,2.06-4.41t1.13-.84a38.87,38.87,0,0,0,.56,3.94c.19.87.37,1.62.56,2.25s-.19,1.19-1.12,1.68a13.87,13.87,0,0,1-3.57,1.22,39.46,39.46,0,0,1-6,.66,19.93,19.93,0,0,1-5.9-.38,8.52,8.52,0,0,1-3.38-1.68,6.69,6.69,0,0,1-1.87-2.44,8,8,0,0,1-.56-3.19c0-1.25.06-3.19.18-5.81s.19-4.25.19-4.88l-4.12.38c1.12,1.5,1.5,2.38,1.12,2.62A37.8,37.8,0,0,0,81,373.31a46.31,46.31,0,0,1-5.81,5.25,24.91,24.91,0,0,1-5.16,3.18,9.14,9.14,0,0,1-3,.85c-.63,0-.19-.38,1.31-1.13A27.07,27.07,0,0,0,73.43,378a46.37,46.37,0,0,0,5.25-5.15,13.21,13.21,0,0,0,3-5.07,7.72,7.72,0,0,1-1.88.19c-.63,1-1.16,1.07-1.59.19a6.81,6.81,0,0,1-.75-2.06,3.81,3.81,0,0,1,.09-1.5,14.13,14.13,0,0,0,.19-2.82c0-1.37,0-3.21-.1-5.53a12.1,12.1,0,0,0-.93-5.06c-.57-1.06-.44-1.53.37-1.41a16,16,0,0,0,2.53.19,33.58,33.58,0,0,0,5.16-.65,19.24,19.24,0,0,0,5.06-1.41,3.19,3.19,0,0,1,3,0c1.06.5,1.84.91,2.35,1.22a1.42,1.42,0,0,1,.75,1.22,2,2,0,0,1-.57,1.22q-.56.66-.84,6.93c-.19,4.19-.31,6.72-.38,7.6A4.42,4.42,0,0,1,93,368.62q-1,1.22-1.41-2.16A21.82,21.82,0,0,0,88.8,366.84Zm-9-10.69A43.07,43.07,0,0,0,85.61,355a3.63,3.63,0,0,1,2.82,0c.62.38.68.75.18,1.13a7.05,7.05,0,0,1-2.72.94,35.78,35.78,0,0,1-6.09.37v3.38a18.74,18.74,0,0,0,4.88-.85c2-.56,3.24-.65,3.75-.28s.68.72.56,1-1.1.66-2.91,1a30.85,30.85,0,0,1-6.28.57v3.93c1.5-.12,3.28-.34,5.34-.65a43.58,43.58,0,0,1,6.47-.47,82.88,82.88,0,0,0,.57-9.19,23.39,23.39,0,0,0-.29-5c-.18-.56-.78-.84-1.78-.84a32.45,32.45,0,0,0-4.5.47c-2,.31-3.93.59-5.81.84Z" transform="translate(-8.15 -10.96)"/><path class="cls-1" d="M84.49,396.86c.12-.12.53.25,1.22,1.13a13.35,13.35,0,0,0,2.53,2.43,9.78,9.78,0,0,0,3.09,1.78,7.24,7.24,0,0,1,2.35,1.22A3,3,0,0,1,94,405.2a5.48,5.48,0,0,1-.47,2c-.25.38-.85.25-1.78-.37a9,9,0,0,0-3.28-1.31,6.77,6.77,0,0,0-4.6.56,6.91,6.91,0,0,0-3.65,4.31A55.54,55.54,0,0,0,78.11,419q5.82-4.5,10.78-4.69a15.44,15.44,0,0,1,7.79,1.31,6.52,6.52,0,0,1,3.28,4.13,11.5,11.5,0,0,1,.09,5.25,9.07,9.07,0,0,1-2.62,4.12,14.8,14.8,0,0,1-5.82,2.81,28.1,28.1,0,0,1-8.15,1c-2.69-.06-4.1-.22-4.22-.46s.65-.41,2.34-.47a45.86,45.86,0,0,0,5.91-.66,23.75,23.75,0,0,0,5.81-2.16,8.37,8.37,0,0,0,3.56-3.09,9.33,9.33,0,0,0,.75-3.84,5.92,5.92,0,0,0-1.12-3.66,6.43,6.43,0,0,0-4.13-2.06,13.82,13.82,0,0,0-6,.19,13.61,13.61,0,0,0-5.53,2.9,19.42,19.42,0,0,0-3.28,3.28c-.5.75-1.06.91-1.69.47a1.78,1.78,0,0,1-.93-1.4,3.86,3.86,0,0,1,.37-2.25,41,41,0,0,0,1.5-4.88,29.58,29.58,0,0,1,2.06-6.37,7.46,7.46,0,0,1,4.5-3.94,10.68,10.68,0,0,1,6.57-.19,28.22,28.22,0,0,1-3.1-2.81,12.22,12.22,0,0,1-2-2.81C84.36,397.61,84.24,397,84.49,396.86Z" transform="translate(-8.15 -10.96)"/><path class="cls-1" d="M76.43,445.89c.12-.25.37-.35.75-.28a7.8,7.8,0,0,1,1.5.47A2.78,2.78,0,0,1,80,447c.25.38.19,1-.19,1.88s-.56,2.81-.56,5.81a3.33,3.33,0,0,1,2.06-.09c.38.18.56.4.56.65s-.31.66-.93,1.22a14.83,14.83,0,0,0-1.69,1.78v1.32q3.75-3.37,5.62-5a17.71,17.71,0,0,1,3.38-2.35,10.93,10.93,0,0,1,2.81-1.12,3.79,3.79,0,0,1,3,.56A3.74,3.74,0,0,1,95.64,454a16.2,16.2,0,0,1,.1,4q-.37,2.43-1.13,6.75a41.91,41.91,0,0,0-.75,6.75,5.69,5.69,0,0,0,.66,3.65,2.91,2.91,0,0,0,2.91,1,8.38,8.38,0,0,0,4-1.78,32.72,32.72,0,0,0,3.47-2.9c.75-.88,1.21-1.25,1.4-1.13s-.28,1.06-1.4,2.81a12.91,12.91,0,0,1-4.6,4,7.41,7.41,0,0,1-5.15.85,4.13,4.13,0,0,1-3.19-3q-.75-2.44.19-8.44c.62-4,1-6.81,1.21-8.44a10.12,10.12,0,0,0-.09-3.75,1.67,1.67,0,0,0-1.5-1.4c-.75-.07-1.94.47-3.56,1.59a68.81,68.81,0,0,0-9,7.13q.18,10.31.19,12.18a13,13,0,0,0,.18,2.63,5.54,5.54,0,0,1-.56,2.06,4.48,4.48,0,0,1-1.31,1.88c-.63.37-1.1.09-1.41-.85a21.73,21.73,0,0,0-1.22-2.9c-.62-1-1.5-2.25-2.62-3.75a35.08,35.08,0,0,0-1.69,3.46c-.37.94-.75,1.35-1.12,1.22a1.5,1.5,0,0,1-1-1.22,2,2,0,0,1,.29-1.78A17.23,17.23,0,0,1,70.52,472a61,61,0,0,0,3.28-6.19q2.06-4.31,2.81-6.18a15.1,15.1,0,0,0,.75-2.07c-.12-.12-.78.13-2,.75s-2.09,1.13-2.71,1.5a2.19,2.19,0,0,1-2.16,0,2.36,2.36,0,0,1-1.22-1.12c-.13-.38.25-.59,1.13-.66a16.31,16.31,0,0,0,2.81-.47,30.31,30.31,0,0,0,4.12-2.06q0-2.06-.09-4.41a10.63,10.63,0,0,0-.66-3.65C76.24,446.51,76.17,446,76.43,445.89Zm.93,18.56q-2.25,3.75-4.31,7.88,3,3,3.56,3.09t.75-.66Z" transform="translate(-8.15 -10.96)"/><path class="cls-1" d="M90.11,496.12a9,9,0,0,1,3.19-1.21c.75-.07,1.5.4,2.25,1.4a4.22,4.22,0,0,1,.94,1.88c0,.37-.38.81-1.13,1.31a50.63,50.63,0,0,0-5.06,4.69c-2.62,2.62-5.13,5.37-7.5,8.25a20.72,20.72,0,0,1,9.38-2.35,11.32,11.32,0,0,1,6.75,2,7.2,7.2,0,0,1,2.81,4.41,10.24,10.24,0,0,1-.56,5.72,10.11,10.11,0,0,1-3.94,4.68,15.49,15.49,0,0,1-6.19,2.44,16.59,16.59,0,0,1-5.81.1,6.29,6.29,0,0,1-3.56-2A5.29,5.29,0,0,1,80,524.25a3.53,3.53,0,0,1,1.12-3A4.18,4.18,0,0,1,85,520a8.09,8.09,0,0,1,4.59,2.16A7.5,7.5,0,0,1,92,526.87c3.25-1,5.4-2.62,6.47-4.87a7,7,0,0,0,.28-6.19,5.7,5.7,0,0,0-4.31-3.37,15,15,0,0,0-5.82,0,15,15,0,0,0-5.34,1.78,23.29,23.29,0,0,0-4,2.72,19.64,19.64,0,0,0-2.91,2.72c-.81.93-1.4,1.09-1.78.46a4.26,4.26,0,0,1-.47-2.25q.09-1.12,2.16-2.43a51.47,51.47,0,0,0,5.44-4.78q3.55-3.48,6.75-7.22t3.93-4.88c.5-.75.57-1.18.19-1.31a7.2,7.2,0,0,0-3.19.75c-1.62.63-2.87,1.12-3.75,1.5a24.08,24.08,0,0,0-3.47,1.22,3.22,3.22,0,0,1-3.65-.66q-1.69-1.5,0-1.5a29.28,29.28,0,0,0,3.37-.19l3.85-.84A25.15,25.15,0,0,0,90.11,496.12ZM86,522.19a4.15,4.15,0,0,0-2.63.09,1.65,1.65,0,0,0-.93,2c0,.88.62,1.72,1.87,2.53s3.44,1,6.56.47a10.68,10.68,0,0,0-2.25-3.56A4.69,4.69,0,0,0,86,522.19Z" transform="translate(-8.15 -10.96)"/><path class="cls-1" d="M29.51,37.49a9.64,9.64,0,0,1-2,5.53A6.37,6.37,0,0,1,23,45a6.54,6.54,0,0,1-4.78-1.31,4,4,0,0,1-1.41-3.94,4.82,4.82,0,0,1,3-3.84c1.75-.82,4.32-1.1,7.69-.85q.38-9.37.47-12.65a32.81,32.81,0,0,0-.09-4.6c-.26-1-.51-1.9-.75-2.72s.12-1.09,1.12-.84a5.08,5.08,0,0,1,2.34.94q1,.75.66,1.68a13.23,13.23,0,0,0-.94,4.32,26.86,26.86,0,0,0,6.1-.28,7.16,7.16,0,0,1,3.47-.1c.49.13.62.44.37.94a3.28,3.28,0,0,1-1.87,1.31,14.91,14.91,0,0,1-3.57.38,12.56,12.56,0,0,1-4.5-.94q-.37,8.43-.56,12.94a15.61,15.61,0,0,1,6,2.72c1.5,1.18,2.19,2.28,2.06,3.28s-.4,1.31-.84,1.31a2,2,0,0,1-1.41-.94,11,11,0,0,0-2.25-2.34A11.86,11.86,0,0,0,29.51,37.49Zm-2.25-.56a17.71,17.71,0,0,0-4.59.18,5.56,5.56,0,0,0-2.91,1.32,2.15,2.15,0,0,0-.84,2,2.62,2.62,0,0,0,1,2,5.27,5.27,0,0,0,2.72.57,4.58,4.58,0,0,0,3.09-1.13C26.51,40.93,27,39.3,27.26,36.93Z" transform="translate(-8.15 -10.96)"/><path class="cls-1" d="M29.33,64.42q4.68-1.5,5.53-1.68c.56-.13,1.15.25,1.78,1.12a7,7,0,0,1,1.12,2.06c.13.5-.18.88-.93,1.13S31.64,71.49,23.51,80a19.32,19.32,0,0,1,9.75-2.82A16.46,16.46,0,0,1,41,78.67a6.93,6.93,0,0,1,3.38,4.41,10.14,10.14,0,0,1-.57,6.28,9.7,9.7,0,0,1-4.4,4.88,17.88,17.88,0,0,1-6.28,1.87A22.65,22.65,0,0,1,26.89,96c-1.88-.31-2.75-.59-2.63-.85s1.38-.34,4.13-.28a20.46,20.46,0,0,0,7.69-1.22,9,9,0,0,0,4.59-3.84,12.18,12.18,0,0,0,1.41-4,8.52,8.52,0,0,0-.85-3.66c-.56-1.18-1.91-2-4-2.53a15.09,15.09,0,0,0-6.66-.37,19,19,0,0,0-6.65,2.62,33.86,33.86,0,0,0-5.16,3.47,7,7,0,0,1-2.34,1.59c-.63.13-1-.4-1-1.59s.59-2.09,2-2.72a30.88,30.88,0,0,0,5-4.12q3.11-3,6.47-6.57A32.48,32.48,0,0,0,33,66.86,6.31,6.31,0,0,0,33.83,65q-.19-.37-1.5,0c-.88.25-2.13.68-3.75,1.31a45.36,45.36,0,0,0-4.5,1.5,3.57,3.57,0,0,1-3.75-.75c-1.26-1.13-.85-1.62,1.21-1.5A24.5,24.5,0,0,0,29.33,64.42Z" transform="translate(-8.15 -10.96)"/><path class="cls-1" d="M18.45,109.42a5.72,5.72,0,0,1,2.81.85c1,.56,1.25,1.15.75,1.78s-1.09,2.84-1.4,6.65a93.4,93.4,0,0,0-.28,11.16,46.89,46.89,0,0,0,.46,7.87,5.83,5.83,0,0,0,2.91,3.94q2.25,1.32,6.19.19a25.1,25.1,0,0,0,8.44-4.69c2.87-2.37,4.4-3.47,4.59-3.28s-.35,1.1-1.59,2.72a30.44,30.44,0,0,1-4.5,4.31,22.22,22.22,0,0,1-5.44,3.19,14.93,14.93,0,0,1-6,.66,7.79,7.79,0,0,1-5.25-2.54q-2.25-2.43-2.35-8.25t.1-11.43q.18-5.62.28-8a10,10,0,0,0-.47-3.85C17.33,109.73,17.57,109.3,18.45,109.42Z" transform="translate(-8.15 -10.96)"/><path class="cls-1" d="M33.08,155.76c0-1,.59-1.06,1.78-.18A5.66,5.66,0,0,1,37,158a1.9,1.9,0,0,1-.65,1.78c-.57.57-2,2-4.41,4.22s-4.56,4.29-6.56,6.1-3.07,3-3.19,3.47.78,1.53,3.09,3.09,4.35,3,6.1,4.41A29.41,29.41,0,0,1,35.61,185a10.48,10.48,0,0,1,2.15,3.75,4.53,4.53,0,0,1-.18,2.91,2.24,2.24,0,0,1-1.5,1.41q-.94.18-2.16-2.82A29.9,29.9,0,0,0,31.2,185a26,26,0,0,0-4-4.59c-1.69-1.56-3.09-2.78-4.22-3.66a7.57,7.57,0,0,1-2.34-2.62q-.48-1.12,3.84-5.44a78.6,78.6,0,0,0,6-6.84,20.73,20.73,0,0,0,2.25-3.47C32.82,157.64,33,156.76,33.08,155.76Z" transform="translate(-8.15 -10.96)"/><path class="cls-1" d="M20.51,207.11c-.37-1-.22-1.44.47-1.31a7.74,7.74,0,0,1,2.16.75,3,3,0,0,1,1.4,1,2,2,0,0,1-.09,2q-.75,1.13-.75,5.62v.19A21.51,21.51,0,0,0,28,213.48a2.83,2.83,0,0,1,2.07-.56,2.3,2.3,0,0,1,1.5.47q.55.47-.57,1.41a51.76,51.76,0,0,1-7.31,3v5.81q6.93-4.12,10.88-3.66a10.86,10.86,0,0,1,6.18,2.53,8.68,8.68,0,0,1,2.53,4.22,10.74,10.74,0,0,1,.1,4.22,12,12,0,0,1-1.69,3.47,10.26,10.26,0,0,1-3.56,2.91,9.7,9.7,0,0,1-5.16.84,5,5,0,0,1-4-2.53,10.51,10.51,0,0,1-1.78-4c-.19-1.19,0-1.34.47-.47s1,1.72,1.59,2.53a7.24,7.24,0,0,0,2,2,5.9,5.9,0,0,0,2.91.47,8.91,8.91,0,0,0,3.09-.66,6.86,6.86,0,0,0,2.25-2.15,9.42,9.42,0,0,0,1.31-3.66A6.88,6.88,0,0,0,40,225.2a5.88,5.88,0,0,0-3.93-2.9,10.33,10.33,0,0,0-5.82.18,25.52,25.52,0,0,0-6.56,3.38q.18,8.07.38,9.94a4.63,4.63,0,0,1-.38,2.81,5.05,5.05,0,0,1-1.5,1.59c-.63.44-1.19.1-1.69-1a11.74,11.74,0,0,0-2.06-3.37c-.88-1-1.69-1.88-2.44-2.63a2.88,2.88,0,0,1-.75-2.72q.38-1.39,6.19-5.72v-6.37a32.91,32.91,0,0,1-4.59.37,7,7,0,0,1-3.1-.56c-.75-.5-.5-.81.75-.94s2.44-.24,3.57-.37a32.61,32.61,0,0,0,3.37-.94,58.34,58.34,0,0,0-.19-6A10,10,0,0,0,20.51,207.11Zm.94,20.06a22,22,0,0,0-3.19,2.72,3.41,3.41,0,0,0-1.12,2c-.13.37.25.91,1.12,1.59s1.56,1.29,2.07,1.78.84.38,1,0a3,3,0,0,0,.28-1.31A59.66,59.66,0,0,1,21.45,227.17Zm15.19-17.25A12,12,0,0,1,40,210a16,16,0,0,1,3.57,1.21,6.19,6.19,0,0,1,2.71,2.44c.57,1,.47,1.5-.28,1.5a8.93,8.93,0,0,0-2.53,0,12,12,0,0,0-2.9.94c-1.13.37-1.57.41-1.32.09a11.73,11.73,0,0,1,1.5-1.4c.63-.63.85-1.16.66-1.6A3,3,0,0,0,40.2,212a19.63,19.63,0,0,0-2.62-1c-1-.31-1.76-.53-2.25-.65S35.26,209.92,36.64,209.92Z" transform="translate(-8.15 -10.96)"/><path class="cls-1" d="M29,256.7c.31.25.19.66-.37,1.22s-1.25,1.31-2.06,2.25-1.78,2.16-2.91,3.66A28.94,28.94,0,0,0,29.23,262a2.15,2.15,0,0,1,2.25.19A8.79,8.79,0,0,1,34,264.2c-.37-1.25-.34-1.84.1-1.78a8.37,8.37,0,0,1,2.15.84q2.25-4.12,2.25-6c-1.5.13-2.59.25-3.28.38a5,5,0,0,1-2.72-.56c-1.12-.5-.69-.85,1.32-1s4.21-.49,6.65-.93,4.47-.85,6.1-1.22a4.9,4.9,0,0,1,3.65.19c.81.5,1,.9.66,1.21s-1.66.6-3.85.85-4.28.5-6.28.75q1.13,1.5,0,2.34a23,23,0,0,0-3.37,3.66c2-.25,3.4-.47,4.22-.66a9.44,9.44,0,0,0,2-.65,1.8,1.8,0,0,1,1.68.09A13.56,13.56,0,0,1,47.33,263a1.16,1.16,0,0,1,.28,1.88c-.57.68-.79,2-.66,4s.28,3.87.47,5.62a9.71,9.71,0,0,1-.66,4.88q-.93,2.25-2.06-1.88a67.06,67.06,0,0,1-8.81.94c-.25,1.38-.66,1.63-1.22.75a5.6,5.6,0,0,1-.47-3.84,39.35,39.35,0,0,0,.38-5.72,16.81,16.81,0,0,0-.57-5.06,18,18,0,0,0-2.62,4.21c-.63,1.44-1.19,2.63-1.69,3.57s-1,.9-1.5-.1l-2.62.57c.87.87,1.21,1.59,1,2.15a13.9,13.9,0,0,0-.19,3.85,34.62,34.62,0,0,1-.09,4.59,7.65,7.65,0,0,1-1.22,3.19q-1,1.59-1.5.18a10.18,10.18,0,0,0-2.16-3.28q-1.68-1.87.19-1t2.25,0a13,13,0,0,0,.56-3.56,17,17,0,0,0-.56-5.53l-1.5.37c-.38,1.13-.72,1.41-1,.85a19.32,19.32,0,0,1-1-4.88c-.38-2.69-.88-4.34-1.5-5a49.15,49.15,0,0,1-2.63,8.91,41.67,41.67,0,0,1-3.66,7.5,18,18,0,0,1-3.65,4.22q-1.88,1.5,1-3.1a45.69,45.69,0,0,0,4.87-10.87,65.36,65.36,0,0,0,2.54-10.5q.55-4.21-.1-5.34c-.44-.75-.28-1.1.47-1a6.26,6.26,0,0,1,2,.47,5.15,5.15,0,0,0,2.91-.09,36.61,36.61,0,0,0,5-1.59c1.94-.75,3.29-.88,4-.38s.75.94,0,1.31a22.44,22.44,0,0,1-4.32,1.32A15.28,15.28,0,0,1,29,256.7Zm-10.21,26c-.75,1.44-1.44,1.75-2.07.94a2,2,0,0,1,.28-2.72,7.61,7.61,0,0,0,1.6-3.38q.38-1.87.75.57A6.5,6.5,0,0,1,18.83,282.67Zm.18-19,3.19.37c.62-.87,1.31-2,2.06-3.28a19.66,19.66,0,0,0,1.88-5,50,50,0,0,1-6.19.94A51.53,51.53,0,0,1,19,263.64ZM22,268a20.41,20.41,0,0,0,3.1-.75,3.93,3.93,0,0,1,2.06-.19c.68.13.78.41.28.85a4.36,4.36,0,0,1-2,.93,24.26,24.26,0,0,1-3.28.47l.19,3q4.13-.93,6.37-1.31a49.77,49.77,0,0,0,1.13-5.34c.12-1.06-.19-1.6-.94-1.6a14.43,14.43,0,0,0-2.72.38l-4.4.94Zm10,9.66c.44.81.44,1.43,0,1.87s-1.15.19-2.15-.75-1.82-1.72-2.44-2.34-.13-.75,1.5-.38S31.6,276.79,32,277.61Zm7.22,3.65c.5.5.5.88,0,1.13a8.08,8.08,0,0,0-2,1.69,25.63,25.63,0,0,1-4.12,3.28,12.93,12.93,0,0,1-4.69,2.25c-1.19.18-1.06-.19.38-1.13a34.11,34.11,0,0,0,4-3.09,18.29,18.29,0,0,0,2.72-2.91,4.78,4.78,0,0,0,.93-2.15c.07-.63.41-.75,1-.38A9,9,0,0,1,39.26,281.26Zm-3-12.93c1.88-.38,3.22-.66,4-.85a1.6,1.6,0,0,1,1.79.47c.37.5,0,.88-1,1.13a22.53,22.53,0,0,1-4.78.37l-.18,3.19a21.49,21.49,0,0,0,3.84-.75,2.18,2.18,0,0,1,2,.19c.62.37.43.78-.56,1.21a14.55,14.55,0,0,1-5.25.66l-.19,3.19c1.87-.25,3.47-.5,4.78-.75a11.78,11.78,0,0,1,3.09-.28c.75.06,1.13,0,1.13-.28s0-2.25-.1-6-.44-5.75-1.12-6a5.74,5.74,0,0,0-2.63-.19c-1.06.12-2.65.37-4.78.75Zm11.91,15.28a4.16,4.16,0,0,1,.66,3.75q-.57,2.14-2.44-.75a61.71,61.71,0,0,0-3.94-5.44q-2.07-2.54,1.13-.84A13.37,13.37,0,0,1,48.17,283.61Z" transform="translate(-8.15 -10.96)"/><path class="cls-1" d="M14.51,306.82c.25-.25.81-.22,1.69.09a4.47,4.47,0,0,1,2.06,1.41c.5.5.5,1.12,0,1.87A11.42,11.42,0,0,0,17,313.75a21.86,21.86,0,0,0-.94,5.54A10.55,10.55,0,0,0,17.14,325,7.46,7.46,0,0,0,19,327.91c.5.31,1,.16,1.5-.47s1.16-2,2.35-4,1.78-2.91,1.78-2.53a16.53,16.53,0,0,1-.85,3.19,40.09,40.09,0,0,0-1.21,4.5,25.16,25.16,0,0,0-.47,3c-.07.75-.35,1.19-.85,1.31s-1.66-.63-3.09-1.88a14.66,14.66,0,0,1-3.66-5.25,14.91,14.91,0,0,1-.75-8.34q.75-5,1.13-6.66a5.42,5.42,0,0,0-.28-2.81C14.29,307.32,14.26,306.94,14.51,306.82Zm21,2.62c.13-.25,1,.1,2.63,1a21.21,21.21,0,0,1,4.31,3.28A12.57,12.57,0,0,1,45,318a13.65,13.65,0,0,1,.85,4.6,10.94,10.94,0,0,1-.47,3.56A6.23,6.23,0,0,1,44,328.38c-.63.63-1.22.53-1.78-.28a11.63,11.63,0,0,0-3.09-2.72,13.39,13.39,0,0,1-2.44-2.06c-.13-.25.5-.13,1.87.37s2.41.63,3.1.75,1.15.07,1.4-.19a4.9,4.9,0,0,0,.19-1.78,17.85,17.85,0,0,0-.37-3.28A14.06,14.06,0,0,0,40.76,315a17.39,17.39,0,0,0-3.37-3.65C36,310.19,35.39,309.57,35.51,309.44Z" transform="translate(-8.15 -10.96)"/><path class="cls-1" d="M18.45,349.42a5.81,5.81,0,0,1,2.81.84c1,.57,1.25,1.16.75,1.79s-1.09,2.84-1.4,6.65a93.4,93.4,0,0,0-.28,11.16,46.89,46.89,0,0,0,.46,7.87,5.83,5.83,0,0,0,2.91,3.94q2.25,1.32,6.19.19a25.1,25.1,0,0,0,8.44-4.69c2.87-2.37,4.4-3.47,4.59-3.28s-.35,1.1-1.59,2.72a30.44,30.44,0,0,1-4.5,4.31,22.22,22.22,0,0,1-5.44,3.19,14.76,14.76,0,0,1-6,.65,7.74,7.74,0,0,1-5.25-2.53q-2.25-2.43-2.35-8.25t.1-11.43q.18-5.62.28-8a10,10,0,0,0-.47-3.85C17.33,349.73,17.57,349.3,18.45,349.42Z" transform="translate(-8.15 -10.96)"/><path class="cls-1" d="M30.08,397.06a5,5,0,0,1,2.15.75,1.37,1.37,0,0,1,.66,1.5,10.2,10.2,0,0,0-.56,2.62,33.06,33.06,0,0,0-.19,3.75,19.84,19.84,0,0,0,4.12-1.12l2.82-1.13a2,2,0,0,1,1.68,0,1.72,1.72,0,0,1,.94.94c.12.25-.31.59-1.31,1A30.42,30.42,0,0,1,37,406.62a49,49,0,0,1-4.87,1.12v6.38a25.79,25.79,0,0,0,4.59-1.41,14.51,14.51,0,0,1,2.16-.84,1.94,1.94,0,0,1,1.5.37c.62.38.5.82-.38,1.32a27.63,27.63,0,0,1-3.37,1.4,36.36,36.36,0,0,1-4.5,1.22v7.88a44.53,44.53,0,0,1,5.25,2.81,32.53,32.53,0,0,1,3,2.25A3.51,3.51,0,0,1,41.7,431a2.63,2.63,0,0,1-.37,1.88c-.51.62-1.22.37-2.16-.75a20.34,20.34,0,0,0-3.09-3A49.24,49.24,0,0,0,32,426.31,8.19,8.19,0,0,1,29,431.46a7.6,7.6,0,0,1-4.59,1.6,8.93,8.93,0,0,1-4.22-.85,5.06,5.06,0,0,1-2.34-2.9,4.22,4.22,0,0,1,.28-4.13c.81-1.37,2.34-2.25,4.59-2.62a14.17,14.17,0,0,1,7.13.75v-6.75a25.34,25.34,0,0,1-5.72.09,6.11,6.11,0,0,1-2.91-1c-.75-.62-.47-.87.85-.75s2.4.19,3.28.19,2.37-.31,4.5-.57v-6.56a19.54,19.54,0,0,1-3.19.1c-.75-.07-1.63-.16-2.62-.29a5.83,5.83,0,0,1-2.72-1c-.82-.56-.54-.78.84-.65a28.32,28.32,0,0,0,3.94.09c1.37-.06,2.62-.15,3.75-.28v-3.56a14.63,14.63,0,0,0-.19-2.63L29,397.81C28.7,397.18,29.07,396.93,30.08,397.06Zm-3.19,27.37a23.23,23.23,0,0,0-2.72-.19,5.17,5.17,0,0,0-2.53.75,2.83,2.83,0,0,0-1.88,1.79,2.8,2.8,0,0,0,.57,2.53,3.73,3.73,0,0,0,3,1.59,6.25,6.25,0,0,0,4.12-.84q1.69-1.32,2.25-4.69A9.47,9.47,0,0,0,26.89,424.43Z" transform="translate(-8.15 -10.96)"/><path class="cls-1" d="M30.08,444.84a6.84,6.84,0,0,1,2.34.37,2.9,2.9,0,0,1,1.41.94c.24.25.24.69,0,1.31s-.38,2.57-.38,5.82q7.13-.94,9.66-1.22a7.84,7.84,0,0,1,3.84.28,2.61,2.61,0,0,1,1.59,1.31c.31.63-.09.94-1.21.94a44.6,44.6,0,0,0-5.35-.1q-3.46.11-8.53.66c0,1.88.06,4.06.19,6.56a21.57,21.57,0,0,1,.47,5.63,17.14,17.14,0,0,1-1.41,6.37A13.94,13.94,0,0,1,29,478.78a17.53,17.53,0,0,1-4.87,3,8,8,0,0,1-3.29.75c-.44-.13.1-.51,1.6-1.13a24.23,24.23,0,0,0,4.87-3.84,16.08,16.08,0,0,0,4.13-7,4.93,4.93,0,0,1-3.28,2,3.44,3.44,0,0,1-3.1-.84,5.78,5.78,0,0,1-1.78-3.28,9.84,9.84,0,0,1-.09-4,6.9,6.9,0,0,1,1.5-3.19,5.1,5.1,0,0,1,2.81-1.69,5.57,5.57,0,0,1,3.94.94c0-1.25-.07-2.94-.19-5.06q-5.44.75-8.44,1.31a48.59,48.59,0,0,0-4.87,1.13,4.63,4.63,0,0,1-3.19,0,5.54,5.54,0,0,1-1.87-1.5c-.63-.75,0-1.07,1.78-.94a32.44,32.44,0,0,0,6.65-.38l9.94-1.5a27.12,27.12,0,0,0-.56-5.43A6.75,6.75,0,0,0,29.51,446C29,445.21,29.2,444.84,30.08,444.84Zm-1.88,16.5a2.58,2.58,0,0,0-1.87,1,4.43,4.43,0,0,0-1.13,2.53,8.92,8.92,0,0,0,0,2.63,3.86,3.86,0,0,0,1.13,2.25,1.67,1.67,0,0,0,2,.56,4.53,4.53,0,0,0,2.16-1.5,5.52,5.52,0,0,0,.84-2.81,11,11,0,0,0-.09-2.63A2.69,2.69,0,0,0,30,461.81,3.64,3.64,0,0,0,28.2,461.34Z" transform="translate(-8.15 -10.96)"/></svg>