<svg id="Layer_1" data-name="Layer 1" xmlns="http://www.w3.org/2000/svg" viewBox="0 0 1158.6 214.05"><title>hello</title><path d="M16.5,85.5h22v71l25-13,14-8a27.81,27.81,0,0,1,4-2c3.5-1.5,4.5.5,4,2s-2,5-2,5l-3,6-6,11s-7.5,13.5-8,15c-1.5,3.5-.5,6.5,6,2,1.5-1.5,44.5-37.5,47-39,6.5-5.5,12.5-4.5,16-1,.74.93,17.5,16.5,23,19,12.5,7.5,32.5,9.5,55,5,3.5-.5,9-2,9-2v-71h21v131h-21v-58s-6.5,1.5-9,2C196,165,168,165,157,160c-9-4-14.08-9-23.5-21.5-2.5-2.5-9.5-4.5-14-1-1.5,1.5-36,30-36,30s-9.5,7.5-11,9C65,183,61,181,62,178s17-33,18.5-35.5c1.5-3.5.5-4.5-4-3-2.5,1.5-38,19-38,19v58h-22Z" transform="translate(-16.5 -4.95)"/><polygon points="251.5 80.05 437.5 80.05 437.5 97.05 274.5 97.05 274.5 146.05 395.5 146.05 395.5 149.05 274.5 149.05 274.5 194.05 437.5 194.05 437.5 211.05 251.5 211.05 251.5 80.05"/><polygon points="463.5 211.05 463.5 80.05 488.5 80.05 488.5 195.05 649.5 195.05 649.5 211.05 463.5 211.05"/><polygon points="673.5 211.05 673.5 80.05 698.5 80.05 698.5 195.05 859.5 195.05 859.5 211.05 673.5 211.05"/><path d="M1099,101c18,13,20,21,2,31-29,17-52,18,1,22,25,3,23,14,11,27-15,21-50,35-107,38-48,0-123-18-123-69,0-40,43-72,119-72C1063,78,1083,93,1099,101Zm-10,20c-2-12-32-28-87-28-56,0-93,23-93,57s37,50,90,53,93-23,95-36c3-17-29-11-30-17S1088,139,1089,121Z" transform="translate(-16.5 -4.95)"/><path d="M1150,187V106c7-7,14-17,17-21,8-11,3-19-4-20-10-2-41,12-46,9-8-7,36-56,34-58s-51,47-116,48c-31-3-39-2-69-22V39c22,18,51,22,68,21,68,1,125-57,128-55s-42,53-37,59c7.5,8.25,32.46-8.26,44,.71,6.31,4.9,6,14.26,6,19.29,0,25.42.22,60.29,0,103Z" transform="translate(-16.5 -4.95)"/><rect x="1133.5" y="192.05" width="25" height="22"/></svg>